<?xml version="1.0" encoding="utf-8"?>
<!-- Generator: Adobe Illustrator 16.0.4, SVG Export Plug-In . SVG Version: 6.00 Build 0)  -->
<!DOCTYPE svg PUBLIC "-//W3C//DTD SVG 1.1//EN" "http://www.w3.org/Graphics/SVG/1.1/DTD/svg11.dtd">
<svg version="1.1" id="Layer_1" xmlns="http://www.w3.org/2000/svg" xmlns:xlink="http://www.w3.org/1999/xlink" x="0px" y="0px"
	 width="1152px" height="1152px" viewBox="0 0 1152 1152" enable-background="new 0 0 1152 1152" xml:space="preserve">
<g>
	<path fill-rule="evenodd" clip-rule="evenodd" d="M1116.18,389.878c-3.903,8.241-9.088,15.63-15.659,21.897
		c-4.673,4.457-9.668,8.652-14.915,12.412c-7.074,5.069-14.528,9.608-21.819,14.374c-10.57,6.909-21.078,13.917-31.731,20.696
		c-9.176,5.839-18.778,10.926-28.701,15.399c-1.377,0.621-2.77,1.302-3.972,2.201c-6.838,5.111-14.583,8.152-22.736,10.404
		c-3.835,1.059-7.551,2.55-11.318,3.852c-1.81,0.625-3.569,1.48-5.428,1.861c-9.041,1.855-17.656,5.012-26.213,8.356
		c-9.604,3.754-19.304,7.192-29.437,9.269c-1.011,0.207-2.021,0.52-2.965,0.935c-7.016,3.087-14.117,6.003-20.983,9.394
		c-5.145,2.54-10.535,4.212-16.026,5.557c-3.196,0.783-5.072,2.004-5.672,5.532c-0.499,2.935-1.889,5.758-3.133,8.519
		c-2.326,5.162-4.299,10.488-7.414,15.292c-1.053,1.622-1.464,3.677-2.068,5.565c-0.656,2.051-0.937,4.26-1.839,6.185
		c-2.066,4.405-4.353,8.711-6.683,12.984c-0.675,1.236-1.785,2.241-2.728,3.324c-5.718,6.568-11.541,13.048-17.113,19.737
		c-1.762,2.115-3.035,4.7-4.221,7.217c-1.867,3.961-4.486,7.136-8.281,9.355c-4.944,2.892-9.047,6.822-13.145,10.761
		c-2.247,2.16-4.553,4.261-6.871,6.347c-0.707,0.637-1.486,1.24-2.329,1.67c-2.134,1.087-3.721,2.71-5.063,4.649
		c-2.782,4.019-5.313,8.161-7.097,12.744c-1.501,3.857-4.265,6.729-7.647,9.006c-4.932,3.318-9.427,7.144-13.559,11.406
		c-1.058,1.091-1.995,2.335-3.188,3.247c-1.952,1.493-3.941,3.031-6.137,4.092c-6.508,3.147-12.695,6.719-17.891,11.83
		c-3.941,3.878-7.563,8.016-10.844,12.479c-1.694,2.305-3.58,4.542-5.711,6.437c-4.039,3.592-7.5,7.626-10.538,12.071
		c-7.307,10.694-14.606,21.395-22.016,32.018c-1.587,2.275-3.686,4.188-5.432,6.361c-1.291,1.607-2.74,3.222-3.519,5.084
		c-4.904,11.742-12.089,22.146-18.902,32.773c-1.549,2.416-2.896,4.962-4.324,7.454c-1.111,1.937-2.126,3.935-3.325,5.815
		c-5.763,9.044-10.938,18.419-15.777,27.979c-1.898,3.75-4.008,7.249-7.49,9.801c-1.727,1.266-2.609,3.237-3.05,5.307
		c-0.636,2.985-1.923,5.498-4.211,7.616c-0.979,0.906-1.631,2.391-1.959,3.728c-0.717,2.93-2.13,5.293-4.504,7.146
		c-0.741,0.579-1.452,1.308-1.915,2.117c-2.81,4.917-6.71,8.935-10.545,13.011c-1.37,1.456-2.805,2.855-4.1,4.376
		c-1.083,1.272-2.308,2.555-2.94,4.057c-1.581,3.751-4.353,6.477-7.225,9.146c-4.055,3.768-8.449,7.081-13.335,9.723
		c-3.008,1.626-5.603,3.694-7.069,6.922c-0.223,0.492-0.61,0.956-1.026,1.309c-3.181,2.696-6.463,5.28-10.46,6.653
		c-6.154,2.114-11.896,5.06-17.489,8.332c-2.24,1.312-4.561,2.372-7.238,2.114c-1.103-0.106-2.218-0.312-3.272-0.647
		c-1.33-0.422-2.581-0.358-3.644,0.484c-4.103,3.251-8.975,4.373-13.961,5.301c-2.896,0.538-5.805,1.152-8.602,2.059
		c-8.198,2.659-16.49,5.093-24.185,9.094c-0.752,0.392-1.422,0.938-2.131,1.414c-1.28,0-2.56,0-3.84,0
		c-1.103-0.779-2.213-1.551-3.309-2.34c-1.337-0.962-2.741-1.261-4.274-0.494c-1.873,0.936-3.344,0.364-4.685-1.113
		c-3.165-3.487-5.67-7.385-6.895-11.936c-2.107-7.831-5.274-15.24-8.587-22.602c-1.52-3.378-3.439-6.515-5.989-9.206
		c-2.38-2.512-3.85-5.43-4.667-8.773c-1.895-7.76-3.849-15.505-5.843-23.239c-0.903-3.502-1.463-7.02-1.461-10.65
		c0.001-2.729-0.479-5.434-1.715-7.901c-1.249-2.494-1.347-5.013-0.772-7.69c0.627-2.923,0.6-5.892-0.208-8.785
		c-0.628-2.255-1.047-4.482-0.665-6.839c0.138-0.847,0.04-1.77-0.133-2.621c-0.523-2.578-1.083-5.152-1.723-7.703
		c-4.296-17.129-8.964-34.159-14.669-50.873c-4.257-12.472-8.921-24.804-13.38-37.207c-0.402-1.12-0.797-2.286-0.909-3.459
		c-0.292-3.061-1.188-5.942-2.264-8.79c-2.119-5.605-4.246-11.208-6.331-16.826c-0.385-1.039-0.631-2.137-0.863-3.225
		c-0.43-2.023-0.628-4.112-1.23-6.079c-1.707-5.573-3.818-11.032-5.319-16.656c-3.515-13.173-4.491-26.595-3.217-40.175
		c0.065-0.696,0.08-1.398,0.13-2.309c-0.81,0.223-1.415,0.357-1.999,0.554c-5.602,1.879-11.209,3.739-16.795,5.663
		c-3.773,1.3-7.644,2.414-11.245,4.095c-13.676,6.386-27.238,13.013-40.893,19.443c-3.454,1.626-7.007,3.162-10.669,4.193
		c-3.955,1.113-7.675,2.629-11.338,4.44c-4.361,2.156-8.791,4.187-13.269,6.09c-3.89,1.653-7.894,3.038-11.836,4.571
		c-4.329,1.685-8.718,3.321-13.345,3.724c-5.35,0.466-10.525,1.734-15.78,2.591c-6.588,1.073-13.36,1.064-20.058,1.396
		c-1.571,0.078-3.2-0.217-4.748-0.573c-8.581-1.98-17.296-3.096-26.02-4.172c-3.578-0.441-7.092-0.956-10.222-3.063
		c-1.124-0.757-2.695-1.047-4.094-1.164c-6.098-0.512-11.47-2.707-16.139-6.627c-2.571-2.159-5.097-4.372-7.622-6.586
		c-2.249-1.972-4.667-3.54-7.656-4.26c-3.21-0.772-5.53-2.819-6.828-5.883c-0.558-1.316-0.848-2.745-1.388-4.071
		c-0.345-0.846-0.925-1.596-1.4-2.39c0-3.36,0-6.72,0-10.08c1.491-0.503,1.208-1.894,1.39-2.969
		c1.148-6.775,3.337-13.146,7.056-18.962c1.938-3.03,3.835-6.087,5.707-9.159c0.705-1.156,1.397-2.343,1.903-3.594
		c2.017-4.991,5.061-9.202,9.11-12.755c4.524-3.97,8.48-8.468,11.922-13.415c0.638-0.917,1.318-1.809,2.017-2.682
		c6.664-8.319,14.192-15.834,21.775-23.294c1.418-1.395,3.045-2.577,4.543-3.894c2.758-2.424,5.605-4.76,8.205-7.345
		c2.913-2.896,6.056-5.393,9.585-7.519c3.545-2.136,6.866-4.653,10.234-7.073c1.491-1.07,2.806-2.384,4.289-3.466
		c7.956-5.804,15.59-12,22.784-18.722c4.178-3.903,8.924-6.982,13.676-10.093c4.876-3.192,9.639-6.558,14.437-9.869
		c3.879-2.677,7.723-5.405,11.609-8.072c3.821-2.622,7.703-5.156,11.51-7.797c4.794-3.325,9.555-6.701,14.302-10.093
		c2.272-1.623,4.601-3.196,6.693-5.033c3.794-3.331,7.695-6.471,12.067-9.034c6.205-3.638,12.33-7.411,18.503-11.104
		c2.604-1.559,5.211-3.078,7.465-5.174c1.394-1.296,3.015-2.384,4.646-3.381c6.204-3.791,12.491-7.445,18.672-11.271
		c3.527-2.183,6.989-4.491,10.333-6.944c2.961-2.173,4.039-5.094,3.169-8.862c-1.205-5.217-1.792-10.539-2.138-15.898
		c-0.173-2.68-0.631-5.431-1.515-7.955c-1.476-4.21-2.069-8.5-2.417-12.902c-0.192-2.439-0.792-4.874-1.454-7.242
		c-0.729-2.61-1.733-5.144-2.632-7.705c-1.823-5.195-3.679-10.378-5.462-15.586c-0.304-0.886-0.461-1.875-0.438-2.81
		c0.091-3.74-1.026-7.082-3.093-10.15c-1.563-2.321-3.161-4.621-4.67-6.976c-2.331-3.638-2.21-6.123,0.69-9.335
		c3.321-3.678,6.63-7.395,10.247-10.77c7.715-7.2,15.601-14.217,23.465-21.255c4.23-3.785,8.465-7.544,12.323-11.734
		c1.587-1.724,3.632-3.195,5.736-4.243c9.475-4.714,18.561-10.021,26.867-16.612c1.47-1.167,3.176-2.017,5.064-1.916
		c2.949,0.159,5.451-0.936,7.944-2.266c4.37-2.331,8.73-4.685,13.17-6.875c1.769-0.872,3.701-1.516,5.629-1.935
		c2.094-0.456,4.281-0.458,6.409-0.782c7.583-1.152,15.161-2.337,22.734-3.547c4.726-0.755,9.52-1.279,13.806-3.707
		c0.474-0.269,1.057-0.358,1.6-0.489c6.211-1.491,12.443-2.902,18.632-4.48c5.717-1.458,11.527-2.552,17.065-4.727
		c2.42-0.95,5.076-1.326,7.643-1.873c2.264-0.482,4.59-0.697,6.825-1.28c7.956-2.074,15.85-4.376,23.977-5.767
		c6.378-1.092,12.706-2.458,19.192-2.838c5.664-0.333,11.331-0.686,16.979-1.214c2.257-0.211,4.467-0.917,6.697-1.398
		c2.72,0,5.44,0,8.16,0c1.382,0.293,2.756,0.796,4.146,0.843c7.029,0.238,14.066,0.273,21.094,0.54
		c8.145,0.309,16.286,0.718,24.423,1.203c8.535,0.509,17.063,1.158,25.594,1.75c6.622,0.46,13.265,0.915,19.607,3.032
		c3.335,1.113,6.694,1.531,10.142,1.334c4.273-0.244,8.447,0.304,12.614,1.154c4.537,0.925,9.061,2.052,13.649,2.554
		c4.75,0.52,9.571,0.524,14.361,0.508c3.675-0.013,6.899,0.964,9.858,3.105c1.154,0.834,2.418,1.607,3.747,2.092
		c4.9,1.787,9.922,2.978,15.202,2.971c1.803-0.002,3.709,0.252,5.392,0.87c7.27,2.667,14.513,5.417,21.683,8.337
		c3.263,1.33,6.502,2.639,9.943,3.425c0.847,0.194,1.74,0.452,2.452,0.923c2.762,1.827,5.758,2.664,9.062,2.612
		c2.176-0.034,3.663,1.198,4.359,3.161c0.553,1.563,0.944,3.228,1.111,4.876c0.713,7.073,1.246,14.164,1.986,21.234
		c0.448,4.282,1.345,8.502,1.096,12.867c-0.08,1.409,0.553,3.001,1.263,4.287c2.587,4.688,5.353,9.276,8.034,13.912
		c0.892,1.541,2.109,2.515,3.928,2.822c2.152,0.364,4.133,1.245,5.873,2.579c3.447,2.642,7.328,3.77,11.655,3.591
		c1.749-0.072,3.538-0.068,5.256,0.215c4.492,0.741,8.959,1.638,13.429,2.506c4.33,0.842,8.689,1.607,13.09,0.867
		c4.19-0.705,8.218-0.537,12.283,0.809c5.02,1.661,10.144,2.105,15.318,0.477c1.05-0.331,2.217-0.514,3.309-0.445
		c4.387,0.277,8.768,0.65,13.146,1.042c9.79,0.876,19.562,1.955,29.405,2.112c10.953,0.175,21.601,2.136,31.977,5.619
		c5.371,1.803,10.694,3.768,16.124,5.374c8.005,2.368,15.746,5.233,22.627,10.098c1.234,0.873,2.572,1.622,3.93,2.291
		c2.004,0.986,4.163,1.684,6.092,2.791c8.668,4.973,17.219,10.125,24.219,17.431c1.658,1.731,3.395,3.39,5.145,5.029
		c4.232,3.964,6.898,8.742,7.764,14.509c0.186,1.232,0.563,2.436,0.854,3.653C1116.18,387.958,1116.18,388.918,1116.18,389.878z
		 M395.083,540.529c3.185,0.895,6.366,1.454,9.274,2.667c10.705,4.468,21.472,8.619,32.97,10.688
		c4.856,0.874,9.589,2.446,14.366,3.743c2.528,0.687,4.841,0.573,7.032-1.11c0.915-0.703,2.101-1.189,3.237-1.443
		c3.721-0.829,7.174-2.256,10.248-4.48c1.959-1.417,4.002-1.811,6.336-1.409c1.646,0.283,3.328,0.517,4.991,0.502
		c3.174-0.028,5.323,1.357,6.631,4.203c1.369,2.977,2.787,5.93,4.158,8.905c0.852,1.848,1.192,3.776,0.969,5.829
		c-0.311,2.86-0.461,5.737-0.776,8.596c-0.437,3.957-0.537,7.954-2.32,11.687c-2.27,4.751-4.27,9.629-6.445,14.425
		c-1.089,2.4-2.183,4.813-3.496,7.093c-4.585,7.964-9.335,15.833-13.868,23.826c-1.245,2.195-2.202,4.631-2.847,7.074
		c-1.577,5.975,0.47,10.758,5.837,13.835c1.851,1.061,3.904,1.828,5.941,2.495c4,1.312,7.684,0.666,11.049-1.992
		c2.444-1.931,4.997-3.734,7.578-5.479c5.102-3.451,10.181-6.917,14.79-11.036c1.237-1.106,2.69-2.05,4.191-2.757
		c1.34-0.632,2.863-1.033,4.341-1.18c1.942-0.192,3.145,0.853,3.688,2.72c0.594,2.044,0.186,3.946-0.783,5.78
		c-2.314,4.382-4.651,8.751-6.918,13.156c-1.492,2.9-3.696,4.932-6.703,6.211c-5.732,2.438-11.427,4.964-17.129,7.47
		c-1.647,0.724-3.293,1.15-5.111,0.645c-0.671-0.187-1.425-0.06-2.139-0.108c-1.657-0.115-3.355-0.063-4.96-0.419
		c-2.659-0.59-5.201-0.607-7.769,0.386c-0.867,0.335-1.891,0.546-2.798,0.438c-3.013-0.354-6.022-0.795-9.002-1.367
		c-2.309-0.443-4.618-1.295-5.962-3.288c-2.406-3.565-4.565-7.301-6.733-11.021c-0.465-0.798-0.666-1.815-0.761-2.755
		c-0.473-4.679,0.031-9.369,1.537-13.724c1.67-4.83,4.399-9.245,8.125-12.888c4.773-4.669,8.694-10.016,12.469-15.482
		c0.413-0.597,0.657-1.311,1.155-2.332c-1.194,0.2-1.885,0.336-2.582,0.43c-1.896,0.254-3.789,0.567-5.694,0.711
		c-1.87,0.141-3.461-0.632-4.648-2.059c-0.76-0.913-1.358-1.962-2.007-2.965c-1.606-2.479-3.232-4.947-4.787-7.459
		c-1.087-1.756-2.073-3.575-3.101-5.368c-0.394-0.688-0.653-1.5-1.187-2.05c-2.734-2.821-5.897-5.097-9.252-7.188
		c-0.343,0.253-0.635,0.4-0.838,0.628c-4.474,5.001-8.941,10.008-13.403,15.021c-1.221,1.372-2.322,2.867-3.647,4.128
		c-3.551,3.377-7.813,5.209-12.732,5.397c-3.005,0.115-3.837-0.672-4.177-3.631c-0.126-1.1-0.28-2.246-0.705-3.252
		c-1.466-3.474-0.847-6.552,1.485-9.392c0.355-0.433,0.716-0.86,1.066-1.298c3.151-3.931,6.406-7.784,9.416-11.82
		c2.306-3.092,1.703-4.598-1.913-5.759c-5.91-1.898-12.018-2.565-18.18-2.873c-1.863-0.093-3.437,0.587-4.763,1.872
		c-1.608,1.558-3.172,3.164-4.824,4.674c-3.259,2.978-4.083,6.583-2.744,10.686c3.098,9.49,6.292,18.949,9.375,28.445
		c0.761,2.342,1.273,4.768,1.855,7.166c0.527,2.17,0.883,4.388,1.516,6.525c0.816,2.754,0.749,3.214-1.756,4.629
		c-3.131,1.768-6.326,3.425-9.422,5.251c-0.995,0.586-2.002,1.41-2.588,2.378c-1.606,2.652-2.979,5.445-4.468,8.17
		c-1.704,3.119-2.357,6.411-1.817,9.947c0.821,5.369,1.709,10.732,2.356,16.124c0.646,5.39,2.126,10.457,4.746,15.225
		c2.014,3.665,3.264,7.639,4.113,11.722c0.503,2.423,0.829,4.882,1.225,7.326c0.278,1.719,1.036,2.976,3.133,3.264
		c-0.405-3.37,0.768-6.213,2.388-8.938c1.962-3.298,3.896-6.612,5.831-9.926c2.361-4.044,5.621-7.137,9.776-9.289
		c3.588-1.86,6.232-1.635,9.204,1.119c1.697,1.572,3.497,2.066,5.701,1.667c5.817-1.054,11.637-2.102,17.467-3.079
		c6.122-1.025,12.298-1.396,18.309,0.39c3.933,1.169,7.792,1.623,11.811,0.938c0.47-0.08,0.957-0.056,1.436-0.081
		c5.427-0.279,10.854-0.542,16.28-0.841c6.145-0.339,12.286-0.758,18.433-1.048c4.389-0.206,8.796-0.112,13.177-0.411
		c5.82-0.396,11.626-1.006,17.431-1.598c6.52-0.665,13.057-1.234,19.54-2.17c7.508-1.082,14.957-2.564,22.446-3.78
		c4.429-0.72,8.682-2.083,13.011-3.175c8.13-2.051,16.429-2.443,24.761-1.276c4.896,0.686,6.574-0.055,9.104-4.244
		c0.701-1.161,1.312-2.379,1.911-3.598c1.14-2.316,1.226-4.764,0.799-7.259c-0.162-0.944-0.441-1.882-0.483-2.831
		c-0.077-1.704,0.041-3.486,1.451-4.648c3.742-3.085,7.868-5.21,12.956-4.479c2.926,0.42,5.86,0.783,8.778,1.247
		c6.595,1.048,12.435,3.918,18.064,7.384c5.492,3.381,7.531,8.282,6.717,14.476c-0.479,3.639-1.17,7.253-1.883,10.855
		c-0.569,2.878-2.396,4.162-5.37,3.935c-2.293-0.175-4.356-0.954-6.094-2.513c-0.893-0.8-1.753-1.653-2.729-2.34
		c-1.606-1.13-2.97-0.997-4.251,0.48c-0.937,1.08-1.754,2.287-2.479,3.523c-2.468,4.204-4.896,8.432-7.295,12.676
		c-4.782,8.458-8.555,17.329-10.819,26.804c-0.696,2.915-1.99,5.557-3.586,8.068c-2.959,4.655-5.854,9.354-8.899,13.951
		c-3.464,5.23-6.251,10.767-8.291,16.702c-1.614,4.699-3.545,9.259-6.708,13.185c-0.345,0.429-0.536,0.978-0.816,1.461
		c-2.798,4.841-5.439,9.781-8.453,14.482c-2.278,3.556-5.025,6.812-7.582,10.188c-1.536,2.027-3.367,3.88-4.619,6.067
		c-4.562,7.978-8.93,16.067-13.394,24.102c-0.501,0.901-1.116,1.744-1.727,2.579c-1.647,2.249-3.347,4.461-4.977,6.724
		c-1.678,2.331-3.193,4.787-4.968,7.04c-2.423,3.076-5.038,6.001-7.546,9.012c-3.399,4.079-7.122,7.761-11.813,10.396
		c-2.014,1.131-3.843,2.59-5.753,3.904c-1.974,1.36-3.87,2.853-5.932,4.062c-4.089,2.397-7.912,5.14-11.421,8.312
		c-2.352,2.126-4.982,3.806-8,4.699c-6.581,1.949-13.162,3.936-19.832,5.541c-4.895,1.178-9.917,1.706-14.977,0.608
		c-4.527-0.981-9.095-1.775-13.632-2.714c-8.284-1.713-16.69-2.882-24.753-5.591c-0.873-0.294-1.856-0.262-2.826-0.386
		c-0.865,2.572-0.636,4.79,0.958,6.741c2.106,2.58,3.383,5.565,4.657,8.602c1.043,2.486,2.247,4.976,3.81,7.155
		c1.695,2.365,3.15,4.808,4.234,7.481c3.093,7.627,6.144,15.271,9.233,22.9c1.347,3.325,2.003,3.637,5.433,2.77
		c0.542-0.137,1.089-0.255,1.628-0.402c5.56-1.521,11.124-2.966,16.983-2.516c0.853,0.065,1.763-0.132,2.597-0.376
		c3.756-1.095,7.554-2.084,11.227-3.415c10.96-3.972,21.905-7.988,32.78-12.186c5.208-2.01,10.292-4.364,15.345-6.749
		c5.47-2.583,9.897-6.438,13.044-11.663c1.554-2.582,3.786-4.281,6.618-5.24c1.21-0.41,2.412-0.844,3.615-1.272
		c4.32-1.538,7.787-4.245,9.891-8.278c2.539-4.863,5.934-9.089,9.118-13.491c8.308-11.487,16.01-23.33,21.175-36.646
		c0.531-1.369,1.577-2.554,2.471-3.762c1.136-1.535,2.508-2.913,3.518-4.522c4.507-7.176,8.892-14.428,13.389-21.61
		c1.011-1.614,2.286-3.064,3.453-4.58c2.579-3.353,5.256-6.635,7.723-10.068c1.816-2.527,3.33-5.271,5.04-7.878
		c1.255-1.915,2.077-3.915,2.097-6.26c0.018-2.188,0.864-4.121,2.727-5.347c2.222-1.463,3.311-3.549,4.076-5.994
		c0.713-2.276,1.42-4.63,2.61-6.669c7.392-12.663,15.603-24.753,25.554-35.588c0.588-0.641,1.177-1.341,1.538-2.118
		c1.333-2.874,3.289-5.28,5.418-7.574c3.208-3.458,6.439-6.895,9.603-10.394c4.616-5.107,9.397-10.036,14.684-14.468
		c3.564-2.988,6.828-6.307,9.408-10.192c1.482-2.231,3.264-4.128,5.237-5.888c4.179-3.724,8.348-7.458,12.537-11.168
		c2.833-2.508,5.433-5.195,7.111-8.649c0.172-0.354,0.423-0.684,0.688-0.98c2.325-2.616,2.287-5.436,0.882-8.47
		c-1.039-2.245-1.98-4.541-2.847-6.858c-0.747-1.998-0.407-3.121,1.245-4.435c1.94-1.543,4.154-2.371,6.676-2.167
		c2.152,0.175,4.172-0.282,5.923-1.514c5.728-4.027,12.035-6.92,18.443-9.639c1.537-0.651,3.118-1.349,4.434-2.348
		c6.681-5.07,13.433-10.021,19.488-15.906c7.679-7.463,15.825-14.436,22.72-22.696c2.193-2.626,3.711-5.536,5.158-8.579
		c2.561-5.386,4.726-10.953,7.882-16.07c4.118-6.677,7.251-13.872,10.305-21.088c0.585-1.382,1.072-2.806,1.62-4.251
		c-1.399-1.273-2.209-2.667-2.14-4.498c0.273-7.268,0.548-14.536,0.748-21.806c0.22-7.99,0.488-15.983,0.472-23.974
		c-0.007-3.691,0.062-7.338,0.69-10.973c0.385-2.224,0.389-4.405-0.198-6.646c-0.857-3.276-0.812-6.633-0.413-10.005
		c0.46-3.883,0.904-7.78,1.055-11.683c0.119-3.079-1.165-4.676-4.07-4.947c-4.011-0.375-7.83-1.275-11.64-2.557
		c-2.316-0.779-4.881-0.787-7.308-1.273c-7.978-1.598-15.941-3.266-23.914-4.89c-12.993-2.646-25.991-5.269-38.983-7.921
		c-2.975-0.607-6.019-1.135-8.592-2.849c-1.97-1.312-4.09-1.718-6.354-1.781c-3.996-0.111-7.993-0.167-11.986-0.339
		c-4.548-0.195-9.097-0.435-13.637-0.765c-2.547-0.185-5.07-0.693-7.616-0.877c-7.167-0.518-14.194,0.735-21.188,2.005
		c-3.422,0.622-6.779,0.833-10.238,0.56c-6.853-0.542-13.719-0.973-20.592-0.263c-6.521,0.673-13.043,1.318-19.557,2.043
		c-8.021,0.893-16.048,1.767-23.884,3.831c-4.147,1.092-8.369,1.166-12.624,0.855c-1.257-0.092-2.578-0.088-3.795,0.195
		c-4.744,1.103-9.465,2.308-14.18,3.531c-2.485,0.645-4.965,1.221-7.56,1.065c-3.292-0.198-6.154,0.934-8.586,3.06
		c-2.034,1.779-4.356,2.95-6.881,3.77c-2.58,0.838-5.156,1.708-7.781,2.381c-4.096,1.049-8.298,1.725-12.335,2.953
		c-7.102,2.159-14.119,4.602-21.158,6.964c-0.973,0.326-2.047,0.68-2.772,1.348c-1.975,1.819-4.335,2.674-6.871,3.163
		c-10.045,1.936-19.557,5.267-28.392,10.504c-1.389,0.823-3.152,1.003-4.724,1.533c-1.958,0.66-3.95,1.256-5.83,2.098
		c-1.67,0.748-3.226,1.761-4.796,2.715c-1.607,0.978-3.228,1.264-5.014,0.505c-1.151-0.488-2.346-0.537-3.442,0.205
		c-4.832,3.265-9.649,6.55-14.486,9.807c-1.65,1.111-3.249,2.355-5.032,3.199c-3.964,1.875-8.016,3.567-12.059,5.27
		c-2.342,0.985-3.636,2.604-4.068,5.165c-1.45,8.6-4.606,16.611-8.812,24.21c-0.917,1.657-2.095,3.228-3.402,4.6
		c-2.866,3.011-5.839,5.925-8.865,8.777c-3.55,3.345-6.218,7.28-8.241,11.683C395.277,539.711,395.17,540.25,395.083,540.529z
		 M201.817,554.874c2.876,1.398,2.976,3.643,2.974,6.075c-0.001,1.812,0.308,3.667,0.766,5.43c1.521,5.854,4.078,11.278,7.485,16.25
		c2.391,3.488,5.131,6.735,7.647,10.141c1.325,1.792,2.612,3.63,3.718,5.561c0.934,1.631,0.608,2.566-0.862,3.725
		c-1.297,1.022-2.745,1.65-4.433,1.496c-7.382-0.676-14.899-0.769-21.5-4.89c-0.942-0.588-1.835-0.459-2.625,0.295
		c-0.81,0.772-1.542,1.633-2.395,2.354c-3.147,2.656-3.762,5.86-2.506,9.712c1.36,4.173,2.501,8.42,3.671,12.653
		c0.271,0.983,0.439,2.055,0.363,3.063c-0.216,2.842-2.732,4.328-5.334,3.196c-0.87-0.378-1.692-0.902-2.468-1.456
		c-2.603-1.856-5.187-3.739-7.756-5.643c-8.093-5.997-16.171-12.014-24.264-18.011c-2.82-2.089-3.297-2.048-5.539,0.523
		c-3.992,4.58-7.97,9.172-11.922,13.787c-0.871,1.017-1.61,2.148-2.51,3.363c6.308,5.281,12.427,10.537,18.688,15.619
		c14.841,12.048,30.387,23.161,45.89,34.327c6.162,4.438,12.395,8.775,18.576,13.186c2.509,1.791,5.262,2.924,8.316,2.232
		c3.415-0.773,6.746-1.919,10.1-2.945c0.5-0.153,0.929-0.543,1.534-0.91c-1.856-4.438-3.465-8.872-5.525-13.085
		c-3.376-6.9-3.731-14.306-4.172-21.726c-0.072-1.205,0.474-2.232,1.59-2.744c2.929-1.345,5.961-2.294,9.254-1.92
		c4.188,0.476,8.073,1.866,11.746,3.901c5.339,2.959,10.13,6.682,14.842,10.529c2.909,2.375,5.916,4.631,8.869,6.954
		c1.147,0.902,2.427,1.382,3.785,0.726c2.138-1.032,4.2-2.221,6.39-3.395c-0.516-1.032-0.92-1.894-1.368-2.731
		c-4.674-8.734-9.425-17.43-14-26.216c-1.841-3.536-3.315-7.259-5.8-10.438c-0.437-0.559-0.724-1.241-1.036-1.888
		c-1.7-3.521-3.321-7.083-5.088-10.57c-9.534-18.807-17.816-38.242-28.396-56.524c-0.551-0.952-1.043-2.047-1.164-3.12
		c-0.518-4.616-3.097-8.3-5.25-12.533C215.364,544.427,208.804,549.486,201.817,554.874z M999.976,330.321
		c0,0.619-0.218,1.31,0.035,1.649c1.605,2.154,0.788,4.235,0.033,6.381c-5.146,14.628-10.852,29.037-16.892,43.317
		c-3.235,7.651-6.7,15.229-9.456,23.054c-5.239,14.881-11.459,29.299-18.637,43.341c-6.692,13.093-13.128,26.318-19.668,39.489
		c-0.367,0.74-0.653,1.519-1.153,2.692c2.678-0.5,4.907-0.743,7.034-1.345c9.219-2.607,18.4-5.346,27.612-7.976
		c2.732-0.78,4.577-2.415,5.804-4.951c1.809-3.74,3.734-7.424,5.615-11.129c3.876-7.632,7.995-15.124,12.916-22.146
		c2.816-4.018,4.364-3.929,6.866,0.357c1.369,2.347,2.662,4.739,4.035,7.083c2.014,3.438,4.675,6.256,8.221,8.387
		c5.056-2.697,10.104-5.445,15.21-8.082c1.735-0.896,3.247-1.996,4.558-3.427c2.052-2.24,4.15-4.438,6.211-6.669
		c0.42-0.454,0.765-0.978,1.264-1.625c-0.956-1.078-1.805-2.12-2.742-3.075c-2.408-2.456-4.904-4.827-7.267-7.325
		c-1.086-1.148-2.107-2.425-2.857-3.807c-0.879-1.62-0.25-2.774,1.509-3.28c0.53-0.152,1.102-0.194,1.658-0.219
		c2.713-0.125,5.427-0.279,8.143-0.328c11.591-0.209,23.182-0.406,34.773-0.552c2.117-0.027,3.893-0.665,5.437-2.095
		c7.273-6.735,14.565-13.449,21.829-20.196c0.594-0.552,1.018-1.287,1.846-2.355c-1.708,0-2.821-0.105-3.909,0.018
		c-5.082,0.574-10.156,1.222-15.235,1.822c-7.462,0.881-14.914,1.867-22.392,2.579c-7.397,0.705-14.827,1.071-22.233,1.685
		c-6.766,0.561-13.518,1.278-20.279,1.875c-2.147,0.19-4.31,0.3-6.465,0.294c-2.029-0.005-2.762-1.084-2.133-2.977
		c0.275-0.829,0.71-1.607,1.084-2.402c3.295-7.015,6.852-13.921,9.829-21.068c4.731-11.356,9.077-22.873,13.583-34.323
		c0.234-0.595,0.488-1.187,0.661-1.8c0.511-1.81,0.298-2.452-1.321-3.371c-1.246-0.707-2.529-1.405-3.879-1.859
		c-6.814-2.295-13.686-4.43-20.821-5.48C1005.661,330.082,1002.866,329.854,999.976,330.321z M793.962,315.046
		c-0.488-0.218-0.763-0.422-1.058-0.46c-5.072-0.659-10.144-1.315-15.222-1.922c-0.862-0.103-1.753,0.018-2.63,0.046
		c-2.549,0.084-5.11,0.383-7.644,0.224c-9.005-0.564-17.964-1.713-27.043-0.971c-5.246,0.429-10.557,0-15.829,0.197
		c-3.742,0.141-7.47,0.679-11.203,1.047c-2.459,0.243-4.914,0.661-7.377,0.721c-10.471,0.253-20.942,0.395-31.414,0.595
		c-2.355,0.045-4.689,0.413-6.532,1.975c-2.098,1.777-4.461,2.294-7.114,2.277c-7.999-0.051-15.999,0.029-23.998-0.034
		c-6.492-0.051-12.955,0.409-19.373,1.245c-7.656,0.997-15.315,0.958-22.986,0.634c-9.562-0.404-19.02,0.195-28.287,2.698
		c-4.896,1.322-9.842,2.079-14.913,1.997c-2.127-0.034-4.077,0.5-5.967,1.506c-1.321,0.703-2.767,1.26-4.223,1.604
		c-5.439,1.286-10.896,2.508-16.37,3.637c-1.457,0.3-3.078,0.509-4.487,0.178c-2.682-0.63-5.191-0.423-7.769,0.384
		c-7.237,2.267-14.467,4.568-21.754,6.664c-9.896,2.846-19.736,5.923-29.917,7.692c-2.416,0.419-4.841,1.061-7.112,1.974
		c-4.664,1.875-9.229,3.992-13.827,6.03c-2.26,1.002-4.538,1.977-6.739,3.098c-3.213,1.636-6.476,3.077-10.015,3.885
		c-3.892,0.889-7.759,1.894-11.623,2.899c-1.042,0.271-2.035,0.73-3.026,1.094c0.582,6.57,0.977,12.875,1.746,19.134
		c0.61,4.963,0.728,9.874,0.017,14.814c-0.072,0.499-0.01,1.017-0.01,1.854c1.317-0.634,2.334-1.066,3.298-1.597
		c3.36-1.849,6.64-3.858,10.074-5.555c2.046-1.011,4.279-1.931,6.512-2.207c2.752-0.339,5.331-0.954,7.769-2.209
		c4.132-2.128,8.465-3.725,12.895-5.116c7.918-2.486,15.919-4.77,23.677-7.692c8.83-3.326,17.722-6.388,26.804-8.926
		c2.147-0.6,4.375-1.09,6.367-2.043c8.517-4.077,17.326-7.38,26.251-10.425c4.873-1.663,9.812-2.796,14.96-3.058
		c1.263-0.064,2.544-0.329,3.759-0.693c15.172-4.542,30.611-7.915,46.2-10.641c1.835-0.321,3.663-0.396,5.424,0.352
		c1.32,0.56,2.621,0.503,3.973,0.1c4.284-1.279,8.573-2.547,12.875-3.766c5.529-1.566,11.015-3.345,16.621-4.563
		c12.411-2.697,24.873-5.169,37.342-7.593c6.032-1.173,12.095-2.347,18.2-2.953c7.946-0.79,15.946-1.074,23.928-1.471
		c10.377-0.515,20.757-0.969,31.139-1.362c4.474-0.169,8.957-0.054,13.433-0.184c9.771-0.284,19.371-2.144,29.051-3.278
		C792.008,316.741,793.172,316.417,793.962,315.046z M381.913,628.535c-0.118-0.657-0.091-0.938-0.212-1.12
		c-1.739-2.606-1.798-5.368-0.866-8.263c0.926-2.875,0.155-5.432-1.303-7.998c-1.53-2.692-2.854-5.523-4.027-8.392
		c-1.025-2.507-1.608-5.19-2.572-7.725c-3.266-8.585-6.599-17.144-9.943-25.697c-0.71-1.815-1.374-3.552-0.568-5.547
		c0.24-0.596,0.047-1.424-0.104-2.111c-1.422-6.472-2.884-12.936-4.318-19.405c-0.223-1.006-0.665-2.092-0.473-3.032
		c0.277-1.361-0.101-2.515-0.419-3.74c-1.103-4.246-2.273-8.477-3.262-12.749c-0.544-2.353-0.434-2.437,1.628-3.62
		c3.667-2.104,6.684-4.87,9.178-8.292c2.306-3.165,4.785-6.205,7.224-9.271c1.79-2.251,2.363-2.384,4.823-0.945
		c4,2.339,8.004,4.678,11.917,7.158c4.635,2.938,9.745,4.687,14.945,6.452c0.253-0.43,0.49-0.75,0.645-1.106
		c1.851-4.248,3.785-8.463,5.488-12.769c0.815-2.06,1.299-4.273,1.729-6.458c0.493-2.508-0.406-4.568-2.563-6.004
		c-0.663-0.441-1.368-0.822-2.067-1.207c-19.877-10.943-39.862-21.713-57.833-35.741c-0.853-0.666-1.718-0.871-2.657-0.34
		c-4.517,2.555-9.199,4.87-13.484,7.77c-5.365,3.631-10.648,7.353-16.428,10.314c-2.146,1.099-2.123,1.143-1.836,3.488
		c0.039,0.317,0.062,0.637,0.118,0.952c3.488,19.657,6.329,39.424,11.366,58.802c2.53,9.73,4.44,19.631,7.329,29.279
		c2.709,9.047,4.81,18.189,5.901,27.604c0.9,7.758,1.846,15.562,4.5,23.005c0.185,0.518,0.217,1.1,0.256,1.655
		c0.516,7.454,2.331,14.664,4.128,21.875c0.242,0.973,0.698,1.893,1.067,2.871c1.808-0.133,3.396-0.263,4.984-0.363
		c4.966-0.313,9.407-3.08,14.437-3.092c0.078,0,0.16-0.027,0.231-0.061C373.191,632.668,377.509,630.622,381.913,628.535z
		 M309.961,586.142c-3.406-7.496-6.921-14.711-11.126-21.864c-1.645,1.313-3.047,2.472-4.491,3.576
		c-2.145,1.64-3.779,3.604-4.677,6.22c-0.848,2.468-3.073,2.86-4.797,0.899c-0.728-0.827-1.258-1.846-1.781-2.83
		c-3.708-6.989-7.353-14.012-11.102-20.978c-1.397-2.596-1.421-5.059,0.267-7.44c2.078-2.929,3.996-6.036,6.458-8.613
		c4.524-4.736,9.354-9.185,14.142-13.662c1.997-1.867,2.599-3.852,1.628-6.444c-2.438-6.507-4.767-13.055-7.185-19.569
		c-0.434-1.169-1.085-2.257-1.728-3.57c-0.854,0.642-1.499,1.086-2.1,1.583c-2.774,2.293-5.557,4.576-8.297,6.908
		c-2.598,2.21-5.533,3.688-8.78,4.758c-2.474,0.816-4.842,2.037-7.128,3.31c-1.876,1.046-3.566,2.427-5.329,3.672
		c-5.571,3.936-10.718,8.319-15.12,13.585c-1.457,1.743-3.491,3.008-5.286,4.461c-0.43,0.348-0.966,0.562-1.443,0.854
		c-2.274,1.388-2.45,1.913-1.306,4.24c1.41,2.87,2.972,5.671,4.252,8.596c1.31,2.992,2.372,6.094,3.515,9.158
		c0.64,1.717,1.104,3.508,1.85,5.176c4.107,9.192,8.27,18.36,12.432,27.528c0.659,1.452,1.248,2.979,2.154,4.271
		c3.152,4.495,5.318,9.471,7.267,14.545c3.654,9.518,8.589,18.408,13.722,27.146c2.722,4.634,5.281,9.288,7.429,14.198
		c1.344,3.071,2.74,6.127,4.277,9.104c1.025,1.986,2.409,3.76,4.289,4.964c8.451-3.611,16.732-7.39,25.196-10.699
		c8.46-3.308,17.104-6.146,25.931-9.284c-0.629-1.966-1.315-4.07-1.976-6.183c-1.739-5.565-3.688-11.087-3.595-17.042
		c0.006-0.387-0.095-0.798-0.243-1.158c-0.524-1.281-1.336-1.602-2.645-1.057c-0.515,0.214-1.024,0.458-1.499,0.749
		c-4.631,2.839-9.27,5.665-13.868,8.557c-1.071,0.674-2.044,1.527-2.978,2.389c-1.963,1.811-2.963,1.803-4.783-0.197
		c-0.429-0.472-0.808-0.991-1.196-1.499c-2.526-3.304-5.062-6.6-7.569-9.918c-1.589-2.105-3.25-4.17-4.669-6.387
		c-2.033-3.172-1.788-5.099,0.597-8.042C302.395,595.559,306.095,590.943,309.961,586.142z M926.614,430.204
		c-0.334-0.238-0.45-0.375-0.592-0.411c-0.308-0.079-0.626-0.124-0.943-0.151c-4.562-0.383-8.7-2.041-12.558-4.386
		c-3.8-2.311-5.966-5.693-6.107-10.241c-0.03-0.957-0.18-1.913-0.178-2.869c0.012-6.787-0.229-13.589,0.164-20.355
		c0.337-5.807,1.37-11.576,2.168-17.352c0.503-3.639,1.134-7.261,1.721-10.888c0.37-2.281,1.577-3.877,3.938-4.239
		c3.479-0.533,6.979-0.935,10.506-0.44c3.481,0.488,6.95,1.082,10.44,1.492c6.443,0.758,12.899,1.048,19.38,0.37
		c3.087-0.323,6.162-0.836,9.309-0.344c2.895,0.453,3.423-0.043,4.009-3.019c1.39-7.055,2.783-14.109,4.151-21.168
		c0.389-2.002,0.695-4.02,1.056-6.126c-0.804-0.084-1.352-0.185-1.901-0.193c-9.511-0.143-19.021-0.303-28.533-0.398
		c-7.356-0.074-14.714-0.047-22.07-0.095c-4.966-0.033-9.896-0.471-14.765-1.482c-0.858-0.178-1.717-0.374-2.585-0.484
		c-1.802-0.228-3.318,0.364-4.463,1.78c-0.804,0.993-1.569,2.019-2.304,3.064c-4.805,6.843-8.997,14.012-10.855,22.264
		c-1.016,4.515-1.736,9.1-2.47,13.672c-1.113,6.939-2.452,13.865-3.094,20.852c-0.862,9.382-1.171,18.816-1.678,28.23
		c-0.188,3.501,0.839,4.969,4.117,6.123c2.409,0.848,4.891,1.522,7.229,2.529c4.972,2.14,8.38,5.791,9.828,11.077
		c1.149,4.195,1.483,8.502,1.309,12.832c-0.221,5.472-1.826,10.694-3.089,15.974c-0.302,1.264-1.148,2.082-2.395,2.453
		c-0.764,0.228-1.536,0.428-2.312,0.608c-5.585,1.299-11.207,1.843-16.866,0.553c-4.757-1.085-9.393-2.566-13.865-4.537
		c-1.155-0.509-2.35-0.929-3.502-1.38c-1.569,1.686-1.78,3.505-1.365,5.486c0.897,4.281,0.646,8.579,0.212,12.888
		c-0.383,3.799-0.675,7.606-1.021,11.581c6.752,2.321,13.28,4.669,19.877,6.802c5.375,1.738,10.597,0.998,15.502-1.75
		c3.484-1.951,6.917-3.997,10.35-6.038c1.945-1.157,3.593-2.652,4.858-4.555c0.348-0.523,0.738-1.123,1.262-1.408
		c3.309-1.807,4.695-4.871,5.606-8.279c0.847-3.163,1.531-6.383,2.595-9.472c3.411-9.912,6.029-20.036,8.346-30.244
		C925.668,435.743,926.106,432.912,926.614,430.204z M759.805,328.991c-1.294,0-2.401-0.094-3.489,0.017
		c-3.655,0.373-7.295,0.961-10.958,1.191c-3.082,0.194-5.191,1.596-6.923,4.054c-3.733,5.3-7.97,10.191-12.438,14.893
		c-1.974,2.077-3.79,4.319-5.525,6.602c-0.807,1.062-1.157,2.458-1.876,3.601c-1.394,2.219-3.673,2.104-4.879-0.197
		c-0.295-0.562-0.47-1.187-0.697-1.783c-2.848-7.461-5.668-14.932-8.556-22.378c-1.316-3.395-2.243-4.042-5.784-3.64
		c-4.673,0.532-9.318,1.296-14.181,1.99c-3.006,22.806-6.121,45.464-9.068,68.239c3.845,1.162,7.398,1.089,10.961,0.431
		c6.126-1.132,6.331-1.239,8.124-7.145c1.863-6.139,5.034-11.547,8.862-16.615c1.705-2.258,2.953-2.267,4.78-0.147
		c1.722,1.998,3.413,4.023,5.188,5.971c0.688,0.755,1.505,1.447,2.382,1.967c2.058,1.221,2.688,1.015,3.636-1.166
		c1.757-4.042,4.694-7.22,7.592-10.412c1.311-1.443,2.688-1.174,3.702,0.514c0.284,0.473,0.456,1.018,0.653,1.539
		c1.591,4.191,3.499,8.225,5.834,12.06c2.243,3.685,4.448,7.396,6.594,11.138c1.625,2.834,4.006,4.457,7.2,5.018
		c5.977,1.049,11.943,2.153,17.92,3.201c0.814,0.143,1.664,0.091,2.802,0.143c-0.888-5.883-1.676-11.411-2.565-16.923
		c-1.833-11.354-3.771-22.692-5.567-34.052c-1.184-7.492-2.217-15.008-3.268-22.52C760.01,332.784,759.959,330.958,759.805,328.991z
		 M453.522,858.784c0.109,0.005,0.219,0.009,0.328,0.014c0,2.318-0.035,4.638,0.011,6.955c0.035,1.771,0.843,3.015,2.622,3.578
		c7.38,2.337,14.958,3.609,22.667,3.176c5.797-0.326,11.557-1.363,17.324-2.149c1.979-0.27,2.749-1.234,2.863-3.229
		c0.027-0.477-0.02-0.958-0.029-1.438c-0.123-6.472-0.445-12.948-0.327-19.415c0.249-13.505,0.696-27.006,1.139-40.506
		c0.125-3.825,0.448-7.649,0.803-11.462c0.376-4.052,0.943-8.085,1.333-12.136c0.153-1.581-0.304-2.075-1.876-2.609
		c-0.452-0.154-0.917-0.292-1.388-0.366c-4.609-0.724-9.229-0.736-13.868-0.281c-2.78,0.272-5.593,0.715-8.355,0.537
		c-3.816-0.245-7.606-0.957-11.393-1.557c-3.237-0.512-6.446-1.154-9.758-0.817c-5.184,0.526-5.933,1.355-5.725,6.558
		c0.013,0.319,0.003,0.646,0.063,0.957c0.976,5.059,0.844,10.184,0.947,15.296c0.089,4.394,0.237,8.786,0.348,13.18
		c0.036,1.412,0.42,2.676,1.438,3.702c0.984,0.993,1.249,2.211,1.017,3.54c-0.7,4.008-0.052,7.97,0.363,11.941
		c0.556,5.331,1.004,10.65,0.289,16.023C453.896,851.754,453.789,855.28,453.522,858.784z M513.057,781.24
		c-0.094,0.876-0.173,1.58-0.244,2.284c-0.501,4.998-0.581,10.074-2.787,14.754c-0.235,0.499-0.367,1.065-0.448,1.614
		c-1.133,7.67-2.326,15.327-2.002,23.134c0.314,7.587,0.527,15.179,0.664,22.771c0.104,5.838,0.016,11.679,0.026,17.519
		c0.001,0.828,0.075,1.657,0.118,2.534c2.17-0.91,4-1.985,5.973-2.435c3.028-0.688,5.754-1.881,8.289-3.607
		c2.709-1.846,5.373-3.764,8.14-5.517c2.014-1.277,4.121-2.432,6.268-3.471c1.907-0.923,3.633-2.047,4.985-3.658
		c1.902-2.266,3.743-4.584,5.556-6.922c1.36-1.754,2.072-3.777,2.101-6.007c0.058-4.422,1.694-8.248,4.351-11.696
		c1.172-1.521,2.394-3.003,3.531-4.548c2.676-3.638,4.341-7.675,4.218-12.244c-0.105-3.907-0.364-7.817-0.726-11.71
		c-0.556-5.987-0.859-11.954,0.167-17.923c0.175-1.019,0.223-2.062,0.273-3.098c0.056-1.138-0.571-1.749-1.648-1.991
		c-1.533-0.346-2.996-0.136-4.469,0.369c-3.631,1.245-7.275,2.421-11.186,2.456c-0.757,0.008-1.514,0.433-2.265,0.683
		c-1.963,0.654-3.881,1.516-5.892,1.944c-6.247,1.333-12.531,2.493-18.795,3.747C515.864,780.502,514.495,780.889,513.057,781.24z
		 M452.855,706.521c-0.047,0.914-0.153,1.551-0.101,2.175c0.386,4.556-0.3,8.913-2.223,13.082c-0.323,0.701-0.512,1.553-0.472,2.32
		c0.281,5.504,0.535,11.014,0.999,16.504c0.458,5.426,0.992,10.821-0.276,16.216c-0.493,2.097,0.358,3.737,2.084,4.974
		c2,1.433,4.242,2.198,6.663,2.475c5,0.57,9.989,1.341,15.005,1.639c8.371,0.498,16.759,0.731,25.143,0.984
		c2.325,0.07,3.15-0.638,3.892-2.809c0.307-0.898,0.499-1.85,0.638-2.792c0.28-1.896,0.444-3.81,0.735-5.704
		c0.545-3.548,1.407-7.067,1.67-10.633c0.487-6.61,0.673-13.243,0.914-19.869c0.15-4.146,0.254-8.298,0.216-12.444
		c-0.02-2.145-0.363-4.29-0.622-6.428c-0.159-1.311-1.006-1.937-2.306-1.969c-0.719-0.019-1.438-0.032-2.157-0.044
		c-6.712-0.108-13.43-0.449-20.134-0.263c-8.459,0.235-16.91,0.855-25.357,1.423C455.709,705.456,454.289,706.119,452.855,706.521z
		 M855.081,425.811c0.088-0.65,0.216-1.115,0.203-1.575c-0.137-4.866-0.228-9.735-0.463-14.597
		c-0.434-8.938-1.119-17.865-1.393-26.807c-0.237-7.75-0.06-15.514-0.044-23.271c0.006-2.956,0.089-5.912,0.104-8.868
		c0.028-5.828,0.032-11.656,0.045-17.483c0.004-1.491,0.001-2.982,0.001-4.507c-3.225-0.895-6.204-1.302-9.264-1.062
		c-5.418,0.424-10.831,0.927-16.255,1.234c-2.417,0.137-3.797,1.189-4.587,3.438c-1.562,4.446-3.226,8.856-4.902,13.26
		c-4.606,12.092-8.971,24.282-14.439,36.028c-1.281,2.75-2.835,5.407-3.807,8.262c-2.515,7.396-5.882,14.323-10.362,20.72
		c-0.521,0.742-0.868,1.605-1.396,2.604c6.801,1.208,13.23,2.35,19.676,3.495c0.389-0.439,0.735-0.769,1.009-1.15
		c1.673-2.335,3.245-4.748,5.008-7.012c3.112-3.999,5.836-8.198,7.558-13c0.349-0.973,0.819-1.911,1.32-2.817
		c0.688-1.244,1.77-1.86,3.204-1.524c3.497,0.819,6.993,1.646,10.469,2.549c1.651,0.43,2.534,1.639,2.619,3.337
		c0.1,1.993,0.161,3.989,0.16,5.984c-0.003,6.316-0.086,12.632-0.046,18.948c0.014,2.067,0.621,2.659,2.723,2.929
		c3.247,0.417,6.505,0.769,9.766,1.061C852.988,426.075,854.017,425.879,855.081,425.811z M517.842,703.673
		c0.301,3.396,0.657,6.317,0.792,9.249c0.139,3.029,0.275,6.085,0.043,9.1c-0.955,12.431-2.05,24.85-3.096,37.272
		c-0.105,1.253-0.225,2.504-0.357,3.983c0.988,0,1.768,0.026,2.546-0.005c5.262-0.21,10.521-0.898,15.79,0.007
		c0.754,0.129,1.597-0.054,2.364-0.237c4.348-1.043,8.68-2.15,13.028-3.194c4.39-1.054,8.491-2.741,12.287-5.211
		c1.548-1.007,2.36-2.306,2.451-4.124c0.148-2.952,0.32-5.904,0.491-8.855c0.591-10.211,1.187-20.422,1.779-30.633
		c0.166-2.856,0.327-5.713,0.502-8.784c-0.89-0.158-1.647-0.372-2.414-0.414c-2.711-0.148-5.433-0.415-8.139-0.318
		c-11.499,0.41-22.995,0.916-34.489,1.444C520.185,703.009,518.966,703.438,517.842,703.673z M427.132,474.377
		c3.79-2.446,7.236-4.751,10.769-6.913c1.5-0.918,2.008-2.103,1.956-3.775c-0.07-2.234-0.051-4.475,0.03-6.709
		c0.089-2.502,1.445-4.166,3.723-5.093c3.588-1.46,6.291-0.715,8.636,2.407c1.232,1.64,2.397,3.329,3.457,4.807
		c7.156-2.744,14.036-5.382,21.152-8.11c-1.726-1.4-3.298-2.742-4.939-3.995c-5.727-4.371-11.875-8.09-18.113-11.676
		c-3.592-2.065-3.662-2.99-1.104-6.285c1.266-1.63,2.51-3.335,3.415-5.178c1.743-3.548,1.271-7.14-0.385-10.628
		c-1.475-3.105-4.303-3.94-7.359-4.671c-3.559-0.85-7.057-1.984-10.529-3.154c-2.694-0.908-5.31-1.123-7.907,0.14
		c-3.729,1.812-7.412,3.721-11.15,5.515c-2.579,1.237-5.216,2.353-7.832,3.513c-1.077,0.478-2.167,0.926-3.339,1.426
		C413.018,435.837,421.126,454.572,427.132,474.377z M531.31,428.945c4.231-0.798,7.927-1.44,11.595-2.212
		c1.661-0.35,2.797-1.501,3.472-3.056c0.604-1.392,1.168-2.801,1.75-4.204c2.113-5.091,4.244-10.175,6.33-15.277
		c0.975-2.386,2.582-4.051,5.139-4.579c6.493-1.341,12.989-2.664,19.501-3.907c2.815-0.538,3.551,0.02,4.782,2.723
		c1.59,3.49,3.215,6.965,4.909,10.405c1.413,2.87,2.178,3.214,5.343,2.53c3.044-0.658,6.072-1.392,9.098-2.13
		c0.736-0.18,1.437-0.507,2.374-0.847c-0.733-1.271-1.28-2.327-1.924-3.32c-6.615-10.203-12.563-20.791-18.323-31.493
		c-2.838-5.273-5.851-10.453-8.871-15.625c-1.385-2.373-1.868-2.475-4.501-1.837c-4.346,1.053-8.694,2.098-13.038,3.158
		c-2.715,0.663-5.425,1.345-8.137,2.021c-1.154,0.288-2.182,0.757-2.143,2.168c0.069,2.476-0.919,4.667-1.695,6.932
		c-0.905,2.642-1.782,5.301-2.508,7.997c-2.597,9.639-5.086,19.307-7.693,28.944c-1.585,5.86-3.343,11.673-4.949,17.528
		C531.497,426.049,531.502,427.325,531.31,428.945z M572.34,749.058c1.686-0.729,2.937-1.226,4.15-1.801
		c3.1-1.47,6.185-2.973,9.273-4.464c1.423-0.688,2.871-0.914,4.404-0.363c1.511,0.543,3.008,0.36,4.418-0.328
		c1.575-0.77,3.12-1.603,4.653-2.454c1.979-1.1,4.013-2.051,6.341-1.826c1.347,0.13,1.98-0.545,2.64-1.573
		c4.394-6.844,7.227-14.39,10.004-21.964c0.163-0.446,0.254-0.925,0.331-1.396c0.15-0.927-0.255-1.546-1.138-1.832
		c-0.531-0.172-1.073-0.321-1.621-0.43c-2.204-0.433-3.985-1.554-5.454-3.233c-3.238-3.704-7.357-5.479-12.247-5.6
		c-2.313-0.058-4.624-0.247-6.938-0.294c-3.515-0.071-7.03-0.103-10.546-0.087c-2.042,0.009-2.692,0.521-3.273,2.477
		c-0.316,1.066-0.592,2.164-0.713,3.267c-1.275,11.587-2.526,23.177-3.753,34.77C572.637,744.138,572.537,746.365,572.34,749.058z
		 M423.064,770.315c-0.124,0.164-0.248,0.328-0.371,0.492c1.933,3.996,1.557,8.06,0.647,12.202c-0.371,1.687-0.554,3.52-0.312,5.212
		c0.44,3.065,1.339,6.062,1.911,9.113c1.132,6.039,2.202,12.091,3.244,18.147c1.286,7.477,2.463,14.959,2.676,22.574
		c0.137,4.863,0.63,9.717,0.945,14.576c0.15,2.311,1.137,4.085,3.092,5.382c2.195,1.456,4.324,3.013,6.479,4.53
		c1.06,0.746,2.138,1.534,3.511,0.9c1.488-0.687,1.208-2.1,1.209-3.354c0.009-8.949,0.105-17.9-0.032-26.849
		c-0.086-5.662-0.416-11.327-0.84-16.977c-0.358-4.772-1.179-9.513-1.493-14.287c-0.46-7.008-0.738-14.031-0.928-21.053
		c-0.146-5.372-0.903-4.523-4.477-5.453c-4.073-1.059-8.005-2.662-11.998-4.031C425.24,771.068,424.152,770.69,423.064,770.315z
		 M441.708,710.565c-0.604-0.031-0.86-0.108-1.075-0.046c-3.982,1.153-7.994,2.223-11.925,3.532c-1.845,0.615-2.93,2.19-3.252,4.146
		c-0.22,1.338-0.346,2.693-0.464,4.045c-0.225,2.548-0.183,5.144-0.66,7.641c-1.658,8.682,0.027,17.006,2.343,25.297
		c0.308,1.1,0.853,1.791,2.042,2.053c2.104,0.465,4.157,1.185,6.272,1.571c1.842,0.337,3.743,0.68,5.523,0.183
		C444.064,742.852,443.174,726.786,441.708,710.565z M600.826,752.285c-3.265,0.518-5.754,2.026-7.993,4.02
		c-3.161,2.813-6.754,4.793-10.892,5.776c-3.094,0.734-5.726,2.373-8.208,4.308c-1.37,1.067-2.017,2.362-1.97,4.122
		c0.223,8.387,0.388,16.775,0.593,25.162c0.01,0.432,0.199,0.858,0.451,1.883c0.67-0.972,1.098-1.475,1.397-2.046
		c1.632-3.113,3.257-6.23,4.838-9.37c1.591-3.161,3.521-6.08,5.88-8.721c1.544-1.729,2.969-3.569,4.577-5.235
		c3.985-4.128,7.005-8.895,9.531-14.006C599.909,756.4,600.854,754.641,600.826,752.285z M472.58,588.674
		c-1.403-1.731-1.684-3.732-1.624-5.851c0.024-0.859-0.141-1.744-0.344-2.588c-0.392-1.629-0.934-2.1-2.504-1.78
		c-1.538,0.312-3.066,0.822-4.49,1.479c-0.727,0.335-1.52,1.083-1.763,1.816c-1.001,3.022-1.146,6.088,0.48,8.985
		c0.777,1.384,2.092,2.183,3.582,2.601c1.099,0.308,2.207,0.278,3.074-0.702C470.146,591.331,471.329,590.053,472.58,588.674z"/>
	<path fill-rule="evenodd" clip-rule="evenodd" fill="#FFFFFF" d="M395.083,540.529c0.087-0.279,0.194-0.817,0.417-1.302
		c2.023-4.403,4.691-8.338,8.241-11.683c3.026-2.852,6-5.766,8.865-8.777c1.307-1.373,2.484-2.943,3.402-4.6
		c4.206-7.599,7.362-15.61,8.812-24.21c0.432-2.56,1.726-4.179,4.068-5.165c4.043-1.702,8.095-3.395,12.059-5.27
		c1.783-0.843,3.382-2.088,5.032-3.199c4.837-3.257,9.655-6.542,14.486-9.807c1.097-0.741,2.291-0.693,3.442-0.205
		c1.787,0.759,3.407,0.472,5.014-0.505c1.57-0.955,3.126-1.968,4.796-2.715c1.88-0.841,3.872-1.438,5.83-2.098
		c1.572-0.53,3.335-0.71,4.724-1.533c8.835-5.237,18.347-8.568,28.392-10.504c2.536-0.489,4.896-1.343,6.871-3.163
		c0.725-0.668,1.8-1.022,2.772-1.348c7.04-2.362,14.056-4.805,21.158-6.964c4.037-1.228,8.239-1.903,12.335-2.953
		c2.625-0.673,5.201-1.543,7.781-2.381c2.525-0.82,4.848-1.991,6.881-3.77c2.432-2.126,5.294-3.258,8.586-3.06
		c2.595,0.156,5.074-0.42,7.56-1.065c4.715-1.223,9.436-2.428,14.18-3.531c1.217-0.283,2.538-0.287,3.795-0.195
		c4.255,0.311,8.477,0.237,12.624-0.855c7.836-2.064,15.862-2.938,23.884-3.831c6.514-0.725,13.036-1.37,19.557-2.043
		c6.873-0.709,13.739-0.279,20.592,0.263c3.459,0.273,6.816,0.062,10.238-0.56c6.993-1.271,14.021-2.523,21.188-2.005
		c2.546,0.184,5.069,0.693,7.616,0.877c4.54,0.33,9.089,0.57,13.637,0.765c3.993,0.171,7.99,0.228,11.986,0.339
		c2.265,0.063,4.385,0.47,6.354,1.781c2.573,1.713,5.617,2.242,8.592,2.849c12.992,2.653,25.99,5.276,38.983,7.921
		c7.973,1.624,15.937,3.292,23.914,4.89c2.427,0.486,4.991,0.494,7.308,1.273c3.81,1.281,7.629,2.182,11.64,2.557
		c2.905,0.271,4.189,1.868,4.07,4.947c-0.15,3.903-0.595,7.8-1.055,11.683c-0.398,3.372-0.444,6.729,0.413,10.005
		c0.587,2.241,0.583,4.422,0.198,6.646c-0.629,3.635-0.697,7.282-0.69,10.973c0.017,7.991-0.252,15.984-0.472,23.974
		c-0.2,7.27-0.475,14.539-0.748,21.806c-0.069,1.832,0.74,3.225,2.14,4.498c-0.548,1.445-1.035,2.869-1.62,4.251
		c-3.054,7.216-6.187,14.411-10.305,21.088c-3.156,5.118-5.321,10.685-7.882,16.07c-1.447,3.043-2.965,5.953-5.158,8.579
		c-6.895,8.261-15.041,15.233-22.72,22.696c-6.056,5.885-12.808,10.836-19.488,15.906c-1.315,0.999-2.896,1.696-4.434,2.348
		c-6.408,2.719-12.716,5.611-18.443,9.639c-1.751,1.231-3.771,1.688-5.923,1.514c-2.521-0.204-4.735,0.624-6.676,2.167
		c-1.652,1.313-1.992,2.437-1.245,4.435c0.866,2.317,1.808,4.613,2.847,6.858c1.405,3.034,1.443,5.854-0.882,8.47
		c-0.265,0.297-0.516,0.626-0.688,0.98c-1.679,3.454-4.278,6.142-7.111,8.649c-4.189,3.71-8.358,7.444-12.537,11.168
		c-1.974,1.76-3.755,3.656-5.237,5.888c-2.58,3.886-5.844,7.204-9.408,10.192c-5.286,4.432-10.067,9.36-14.684,14.468
		c-3.163,3.499-6.395,6.936-9.603,10.394c-2.129,2.294-4.085,4.7-5.418,7.574c-0.361,0.777-0.95,1.478-1.538,2.118
		c-9.951,10.835-18.162,22.925-25.554,35.588c-1.19,2.039-1.897,4.393-2.61,6.669c-0.766,2.445-1.854,4.531-4.076,5.994
		c-1.862,1.226-2.709,3.159-2.727,5.347c-0.02,2.345-0.842,4.345-2.097,6.26c-1.71,2.606-3.224,5.351-5.04,7.878
		c-2.467,3.434-5.144,6.716-7.723,10.068c-1.167,1.516-2.442,2.966-3.453,4.58c-4.497,7.183-8.882,14.435-13.389,21.61
		c-1.01,1.609-2.382,2.987-3.518,4.522c-0.894,1.208-1.939,2.393-2.471,3.762c-5.165,13.316-12.867,25.159-21.175,36.646
		c-3.184,4.402-6.579,8.628-9.118,13.491c-2.104,4.033-5.571,6.74-9.891,8.278c-1.203,0.429-2.405,0.862-3.615,1.272
		c-2.833,0.959-5.064,2.658-6.618,5.24c-3.147,5.226-7.574,9.08-13.044,11.663c-5.052,2.385-10.136,4.739-15.345,6.749
		c-10.875,4.197-21.82,8.214-32.78,12.186c-3.673,1.331-7.471,2.32-11.227,3.415c-0.834,0.244-1.744,0.441-2.597,0.376
		c-5.859-0.45-11.424,0.995-16.983,2.516c-0.539,0.147-1.086,0.266-1.628,0.402c-3.43,0.867-4.086,0.556-5.433-2.77
		c-3.089-7.629-6.14-15.273-9.233-22.9c-1.084-2.674-2.539-5.116-4.234-7.481c-1.563-2.18-2.766-4.669-3.81-7.155
		c-1.274-3.036-2.551-6.021-4.657-8.602c-1.593-1.951-1.822-4.169-0.958-6.741c0.97,0.124,1.953,0.092,2.826,0.386
		c8.062,2.709,16.469,3.878,24.753,5.591c4.538,0.938,9.105,1.732,13.632,2.714c5.061,1.098,10.083,0.569,14.977-0.608
		c6.669-1.605,13.25-3.592,19.832-5.541c3.018-0.894,5.648-2.573,8-4.699c3.51-3.172,7.333-5.914,11.421-8.312
		c2.062-1.21,3.958-2.702,5.932-4.062c1.91-1.314,3.739-2.773,5.753-3.904c4.692-2.635,8.414-6.316,11.813-10.396
		c2.508-3.011,5.124-5.936,7.546-9.012c1.775-2.253,3.29-4.709,4.968-7.04c1.629-2.263,3.329-4.475,4.977-6.724
		c0.611-0.835,1.226-1.678,1.727-2.579c4.463-8.034,8.831-16.124,13.394-24.102c1.252-2.188,3.083-4.04,4.619-6.067
		c2.557-3.375,5.304-6.632,7.582-10.188c3.014-4.701,5.655-9.642,8.453-14.482c0.28-0.483,0.472-1.032,0.816-1.461
		c3.163-3.926,5.094-8.485,6.708-13.185c2.04-5.936,4.827-11.472,8.291-16.702c3.046-4.598,5.94-9.296,8.899-13.951
		c1.596-2.512,2.89-5.153,3.586-8.068c2.265-9.475,6.037-18.346,10.819-26.804c2.399-4.244,4.827-8.472,7.295-12.676
		c0.726-1.236,1.543-2.443,2.479-3.523c1.281-1.478,2.645-1.61,4.251-0.48c0.976,0.687,1.836,1.54,2.729,2.34
		c1.737,1.559,3.801,2.338,6.094,2.513c2.975,0.228,4.801-1.057,5.37-3.935c0.713-3.603,1.403-7.217,1.883-10.855
		c0.814-6.193-1.225-11.095-6.717-14.476c-5.63-3.466-11.47-6.336-18.064-7.384c-2.918-0.464-5.853-0.827-8.778-1.247
		c-5.088-0.73-9.214,1.395-12.956,4.479c-1.41,1.162-1.528,2.944-1.451,4.648c0.042,0.949,0.321,1.887,0.483,2.831
		c0.427,2.495,0.341,4.942-0.799,7.259c-0.6,1.219-1.21,2.437-1.911,3.598c-2.53,4.189-4.209,4.93-9.104,4.244
		c-8.332-1.167-16.631-0.774-24.761,1.276c-4.329,1.092-8.582,2.455-13.011,3.175c-7.489,1.216-14.938,2.698-22.446,3.78
		c-6.483,0.936-13.02,1.505-19.54,2.17c-5.805,0.592-11.611,1.201-17.431,1.598c-4.381,0.299-8.788,0.205-13.177,0.411
		c-6.147,0.29-12.289,0.709-18.433,1.048c-5.426,0.299-10.854,0.562-16.28,0.841c-0.479,0.025-0.966,0.001-1.436,0.081
		c-4.019,0.686-7.877,0.231-11.811-0.938c-6.01-1.785-12.187-1.415-18.309-0.39c-5.831,0.978-11.65,2.025-17.467,3.079
		c-2.204,0.399-4.004-0.095-5.701-1.667c-2.972-2.754-5.615-2.979-9.204-1.119c-4.155,2.152-7.415,5.245-9.776,9.289
		c-1.935,3.313-3.869,6.628-5.831,9.926c-1.621,2.725-2.793,5.567-2.388,8.938c-2.098-0.288-2.855-1.545-3.133-3.264
		c-0.396-2.444-0.722-4.903-1.225-7.326c-0.849-4.083-2.099-8.057-4.113-11.722c-2.619-4.768-4.099-9.835-4.746-15.225
		c-0.647-5.392-1.535-10.755-2.356-16.124c-0.541-3.536,0.113-6.828,1.817-9.947c1.489-2.725,2.862-5.518,4.468-8.17
		c0.586-0.968,1.594-1.792,2.588-2.378c3.096-1.826,6.291-3.483,9.422-5.251c2.505-1.415,2.572-1.875,1.756-4.629
		c-0.633-2.138-0.989-4.355-1.516-6.525c-0.583-2.398-1.095-4.824-1.855-7.166c-3.083-9.496-6.277-18.955-9.375-28.445
		c-1.339-4.104-0.515-7.708,2.744-10.686c1.652-1.51,3.216-3.116,4.824-4.674c1.326-1.285,2.9-1.965,4.763-1.872
		c6.162,0.308,12.27,0.975,18.18,2.873c3.616,1.162,4.218,2.667,1.913,5.759c-3.01,4.036-6.265,7.89-9.416,11.82
		c-0.35,0.438-0.711,0.865-1.066,1.298c-2.332,2.84-2.951,5.918-1.485,9.392c0.425,1.006,0.579,2.152,0.705,3.252
		c0.34,2.959,1.172,3.746,4.177,3.631c4.919-0.188,9.181-2.021,12.732-5.397c1.326-1.261,2.426-2.756,3.647-4.128
		c4.462-5.013,8.929-10.02,13.403-15.021c0.203-0.228,0.495-0.375,0.838-0.628c3.355,2.092,6.519,4.367,9.252,7.188
		c0.533,0.55,0.793,1.362,1.187,2.05c1.028,1.793,2.014,3.612,3.101,5.368c1.555,2.512,3.181,4.979,4.787,7.459
		c0.649,1.003,1.247,2.052,2.007,2.965c1.187,1.427,2.778,2.199,4.648,2.059c1.905-0.144,3.798-0.457,5.694-0.711
		c0.697-0.094,1.388-0.229,2.582-0.43c-0.498,1.021-0.742,1.735-1.155,2.332c-3.774,5.467-7.696,10.813-12.469,15.482
		c-3.725,3.643-6.454,8.058-8.125,12.888c-1.506,4.354-2.01,9.045-1.537,13.724c0.095,0.939,0.295,1.957,0.761,2.755
		c2.168,3.72,4.327,7.455,6.733,11.021c1.345,1.993,3.654,2.845,5.962,3.288c2.979,0.572,5.989,1.013,9.002,1.367
		c0.908,0.107,1.932-0.104,2.798-0.438c2.568-0.993,5.11-0.976,7.769-0.386c1.605,0.355,3.303,0.304,4.96,0.419
		c0.714,0.049,1.468-0.078,2.139,0.108c1.818,0.506,3.464,0.079,5.111-0.645c5.703-2.506,11.397-5.031,17.129-7.47
		c3.007-1.279,5.211-3.311,6.703-6.211c2.267-4.405,4.604-8.774,6.918-13.156c0.969-1.834,1.376-3.736,0.783-5.78
		c-0.542-1.867-1.745-2.912-3.688-2.72c-1.478,0.146-3,0.548-4.341,1.18c-1.501,0.707-2.955,1.65-4.191,2.757
		c-4.609,4.119-9.688,7.585-14.79,11.036c-2.582,1.745-5.134,3.549-7.578,5.479c-3.365,2.658-7.05,3.304-11.049,1.992
		c-2.038-0.667-4.09-1.435-5.941-2.495c-5.367-3.077-7.414-7.86-5.837-13.835c0.645-2.443,1.602-4.879,2.847-7.074
		c4.532-7.993,9.283-15.862,13.868-23.826c1.313-2.279,2.407-4.692,3.496-7.093c2.176-4.796,4.176-9.674,6.445-14.425
		c1.784-3.732,1.883-7.729,2.32-11.687c0.315-2.859,0.465-5.736,0.776-8.596c0.224-2.053-0.117-3.981-0.969-5.829
		c-1.372-2.975-2.79-5.929-4.158-8.905c-1.308-2.845-3.457-4.231-6.631-4.203c-1.663,0.015-3.346-0.219-4.991-0.502
		c-2.334-0.402-4.377-0.008-6.336,1.409c-3.074,2.224-6.527,3.651-10.248,4.48c-1.137,0.253-2.322,0.74-3.237,1.443
		c-2.191,1.683-4.504,1.797-7.032,1.11c-4.777-1.296-9.51-2.869-14.366-3.743c-11.498-2.069-22.266-6.22-32.97-10.688
		C401.449,541.982,398.268,541.424,395.083,540.529z M563.411,535.916c0.858-1.086,1.358-1.789,1.929-2.428
		c2.38-2.664,4.2-5.625,5.06-9.134c0.148-0.607,0.415-1.216,0.753-1.742c2.605-4.044,5.492-7.863,9.031-11.157
		c3.335-3.104,6.647-6.231,9.952-9.366c1.821-1.729,3.843-3.113,6.259-3.874c3.96-1.246,7.364-3.416,10.425-6.19
		c2.902-2.63,5.79-5.283,8.809-7.776c1.838-1.518,3.867-2.82,5.888-4.095c2.7-1.702,5.49-3.26,8.215-4.922
		c6.477-3.95,12.932-7.938,19.416-11.875c0.739-0.449,1.589-0.764,2.429-0.991c8.784-2.376,17.558-4.795,26.375-7.043
		c4.091-1.042,8.216-1.975,12.537-1.637c7.488,0.585,14.99,0.992,22.486,1.481c1.979,0.129,3.447,1.086,4.528,2.743
		c0.697,1.067,1.396,2.168,2.281,3.07c2.946,3.006,8.078,2.456,10.121-1.149c1.812-3.202,2.815-6.722,1.917-10.375
		c-0.797-3.241-1.995-6.392-3.157-9.53c-0.605-1.638-1.295-3.327-2.327-4.708c-2.918-3.903-5.999-7.688-9.09-11.458
		c-1.088-1.327-2.546-2.184-4.342-2.262c-7.339-0.318-14.626-0.52-21.988,0.503c-12.232,1.7-22.694,6.743-31.836,14.88
		c-1.596,1.42-3.331,2.878-5.266,3.688c-6.728,2.82-12.117,7.703-18.225,11.465c-3.462,2.132-6.633,4.731-10.044,6.951
		c-5.358,3.486-10.799,6.848-16.226,10.228c-2.928,1.824-5.694,3.827-8.121,6.305c-2.012,2.054-4.087,4.052-6.222,5.977
		c-9.625,8.678-18.909,17.696-27.687,27.234c-9.266,10.069-18.986,19.668-29.501,28.443c-2.867,2.393-6.026,4.149-9.699,5.006
		c-2.798,0.652-5.545,1.521-8.322,2.263c-1.975,0.528-3.404,1.733-4.354,3.497c-0.785,1.457-0.567,2.615,0.728,3.592
		c3.898,2.939,8.113,4.325,13.029,2.813c3.507-1.078,7.085-1.925,10.637-2.853c0.738-0.193,1.501-0.29,2.787-0.531
		c-1.365,2.75-2.558,4.993-3.606,7.302c-1.256,2.768-3.208,4.843-5.539,6.783c-2.245,1.868-4.237,4.124-5.99,6.472
		c-1.547,2.071-0.605,3.997,1.911,4.741c1.865,0.552,3.669,0.318,5.328-0.621c1.525-0.863,3.133-1.7,4.403-2.874
		c4.521-4.184,9.793-7.131,15.269-9.811c5.7-2.791,10.913-6.288,15.601-10.613c2.946-2.718,6.491-4.493,10.888-5.521
		c-0.24,2.158-0.355,3.969-0.657,5.75c-0.669,3.962-1,7.919-0.472,11.931c0.646,4.909,1.334,9.817,1.794,14.745
		c0.767,8.218,4.962,13.177,13.119,14.941c11.346,2.454,22.095,0.771,32.104-5.117c3.163-1.86,6.113-4.08,9.181-6.104
		c2.754-1.817,4.852-4.128,5.858-7.341c0.534-1.703,1.693-2.906,3.341-3.546c3.621-1.408,6.064-4.039,7.893-7.359
		c0.608-1.104,1.289-2.168,1.94-3.257c2.286,1.538,3.45,2.77,4.869,5.126c0.453,0.752,0.827,1.555,1.312,2.285
		c1.821,2.745,4.817,3.278,7.479,1.362c3.071-2.21,3.997-5.546,2.189-8.862c-1.848-3.39-3.296-6.92-4.416-10.598
		c-2.284-7.502-6.125-14.059-11.983-19.318c-2.368-2.126-4.706-4.534-7.507-5.883c-8.137-3.92-16.557-7.215-25.644-8.268
		c-6.356-0.737-12.586-0.418-18.55,2.306c-2.754,1.257-5.622,2.278-8.482,3.28c-5.726,2.006-11.478,3.939-17.227,5.876
		c-2.568,0.865-4.841,2.036-6.103,4.652c-0.274,0.569-0.986,1.125-1.604,1.293C567.544,535.187,565.735,535.458,563.411,535.916z"/>
	<path fill-rule="evenodd" clip-rule="evenodd" fill="#FFFFFF" d="M201.817,554.874c6.987-5.388,13.547-10.447,20.29-15.646
		c2.153,4.233,4.732,7.917,5.25,12.533c0.12,1.073,0.613,2.168,1.164,3.12c10.58,18.282,18.862,37.718,28.396,56.524
		c1.768,3.487,3.388,7.049,5.088,10.57c0.312,0.646,0.599,1.329,1.036,1.888c2.485,3.18,3.959,6.902,5.8,10.438
		c4.574,8.786,9.325,17.481,14,26.216c0.448,0.838,0.853,1.699,1.368,2.731c-2.189,1.174-4.252,2.362-6.39,3.395
		c-1.358,0.656-2.638,0.177-3.785-0.726c-2.953-2.323-5.96-4.579-8.869-6.954c-4.711-3.848-9.503-7.57-14.842-10.529
		c-3.673-2.035-7.557-3.426-11.746-3.901c-3.293-0.374-6.325,0.575-9.254,1.92c-1.116,0.512-1.662,1.539-1.59,2.744
		c0.441,7.42,0.796,14.825,4.172,21.726c2.061,4.213,3.669,8.646,5.525,13.085c-0.605,0.367-1.034,0.757-1.534,0.91
		c-3.354,1.026-6.686,2.172-10.1,2.945c-3.054,0.691-5.807-0.441-8.316-2.232c-6.181-4.41-12.414-8.748-18.576-13.186
		c-15.503-11.166-31.049-22.279-45.89-34.327c-6.261-5.082-12.38-10.338-18.688-15.619c0.9-1.215,1.639-2.347,2.51-3.363
		c3.952-4.615,7.931-9.207,11.922-13.787c2.242-2.571,2.719-2.612,5.539-0.523c8.093,5.997,16.171,12.014,24.264,18.011
		c2.569,1.903,5.153,3.786,7.756,5.643c0.776,0.554,1.598,1.078,2.468,1.456c2.603,1.132,5.119-0.354,5.334-3.196
		c0.077-1.009-0.091-2.08-0.363-3.063c-1.169-4.233-2.311-8.48-3.671-12.653c-1.255-3.852-0.641-7.056,2.506-9.712
		c0.853-0.721,1.585-1.581,2.395-2.354c0.79-0.754,1.683-0.883,2.625-0.295c6.601,4.121,14.118,4.214,21.5,4.89
		c1.688,0.154,3.136-0.474,4.433-1.496c1.47-1.158,1.795-2.094,0.862-3.725c-1.105-1.931-2.393-3.769-3.718-5.561
		c-2.517-3.405-5.256-6.652-7.647-10.141c-3.408-4.972-5.965-10.396-7.485-16.25c-0.458-1.762-0.768-3.617-0.766-5.43
		C204.792,558.517,204.693,556.272,201.817,554.874z"/>
	<path fill-rule="evenodd" clip-rule="evenodd" fill="#FFFFFF" d="M999.976,330.321c2.891-0.466,5.686-0.239,8.426,0.164
		c7.136,1.05,14.007,3.185,20.821,5.48c1.35,0.454,2.633,1.152,3.879,1.859c1.619,0.919,1.832,1.562,1.321,3.371
		c-0.173,0.613-0.427,1.205-0.661,1.8c-4.506,11.45-8.852,22.967-13.583,34.323c-2.978,7.147-6.534,14.053-9.829,21.068
		c-0.374,0.795-0.809,1.573-1.084,2.402c-0.629,1.893,0.104,2.972,2.133,2.977c2.155,0.006,4.317-0.104,6.465-0.294
		c6.762-0.598,13.514-1.314,20.279-1.875c7.406-0.614,14.836-0.98,22.233-1.685c7.478-0.712,14.93-1.697,22.392-2.579
		c5.079-0.6,10.153-1.248,15.235-1.822c1.088-0.123,2.201-0.018,3.909-0.018c-0.828,1.069-1.252,1.804-1.846,2.355
		c-7.264,6.747-14.556,13.46-21.829,20.196c-1.544,1.43-3.319,2.068-5.437,2.095c-11.592,0.146-23.183,0.343-34.773,0.552
		c-2.716,0.049-5.43,0.203-8.143,0.328c-0.557,0.025-1.128,0.067-1.658,0.219c-1.759,0.506-2.388,1.66-1.509,3.28
		c0.75,1.382,1.771,2.659,2.857,3.807c2.362,2.498,4.858,4.87,7.267,7.325c0.938,0.955,1.786,1.997,2.742,3.075
		c-0.499,0.647-0.844,1.171-1.264,1.625c-2.061,2.231-4.159,4.429-6.211,6.669c-1.311,1.432-2.822,2.531-4.558,3.427
		c-5.106,2.637-10.154,5.385-15.21,8.082c-3.546-2.131-6.207-4.948-8.221-8.387c-1.373-2.345-2.666-4.736-4.035-7.083
		c-2.502-4.287-4.05-4.375-6.866-0.357c-4.921,7.021-9.04,14.513-12.916,22.146c-1.881,3.705-3.807,7.389-5.615,11.129
		c-1.227,2.536-3.071,4.17-5.804,4.951c-9.212,2.629-18.394,5.369-27.612,7.976c-2.127,0.602-4.356,0.844-7.034,1.345
		c0.5-1.173,0.786-1.953,1.153-2.692c6.54-13.171,12.976-26.396,19.668-39.489c7.178-14.042,13.397-28.46,18.637-43.341
		c2.756-7.825,6.221-15.403,9.456-23.054c6.04-14.28,11.745-28.688,16.892-43.317c0.755-2.146,1.572-4.228-0.033-6.381
		C999.758,331.63,999.976,330.939,999.976,330.321z"/>
	<path fill-rule="evenodd" clip-rule="evenodd" fill="#FFFFFF" d="M793.962,315.046c-0.79,1.371-1.954,1.694-3.147,1.834
		c-9.68,1.135-19.279,2.995-29.051,3.278c-4.476,0.13-8.959,0.015-13.433,0.184c-10.382,0.393-20.762,0.847-31.139,1.362
		c-7.981,0.396-15.981,0.681-23.928,1.471c-6.105,0.606-12.168,1.78-18.2,2.953c-12.469,2.424-24.931,4.896-37.342,7.593
		c-5.606,1.218-11.092,2.997-16.621,4.563c-4.302,1.219-8.591,2.487-12.875,3.766c-1.352,0.403-2.652,0.46-3.973-0.1
		c-1.761-0.748-3.589-0.673-5.424-0.352c-15.589,2.727-31.028,6.1-46.2,10.641c-1.215,0.364-2.497,0.628-3.759,0.693
		c-5.148,0.262-10.088,1.396-14.96,3.058c-8.925,3.045-17.734,6.348-26.251,10.425c-1.993,0.954-4.22,1.444-6.367,2.043
		c-9.082,2.538-17.975,5.601-26.804,8.926c-7.758,2.922-15.758,5.206-23.677,7.692c-4.429,1.391-8.762,2.987-12.895,5.116
		c-2.438,1.256-5.017,1.87-7.769,2.209c-2.233,0.275-4.466,1.195-6.512,2.207c-3.435,1.696-6.714,3.706-10.074,5.555
		c-0.963,0.53-1.98,0.963-3.298,1.597c0-0.837-0.062-1.355,0.01-1.854c0.711-4.94,0.593-9.851-0.017-14.814
		c-0.769-6.259-1.164-12.564-1.746-19.134c0.991-0.364,1.984-0.823,3.026-1.094c3.864-1.005,7.731-2.01,11.623-2.899
		c3.539-0.809,6.802-2.249,10.015-3.885c2.202-1.121,4.479-2.096,6.739-3.098c4.597-2.038,9.163-4.155,13.827-6.03
		c2.271-0.913,4.697-1.555,7.112-1.974c10.181-1.769,20.02-4.847,29.917-7.692c7.288-2.096,14.517-4.396,21.754-6.664
		c2.578-0.808,5.087-1.015,7.769-0.384c1.409,0.331,3.03,0.122,4.487-0.178c5.474-1.128,10.93-2.351,16.37-3.637
		c1.456-0.344,2.902-0.902,4.223-1.604c1.891-1.006,3.84-1.54,5.967-1.506c5.071,0.082,10.017-0.674,14.913-1.997
		c9.267-2.503,18.726-3.102,28.287-2.698c7.671,0.324,15.33,0.362,22.986-0.634c6.418-0.835,12.881-1.295,19.373-1.245
		c7.999,0.063,15.999-0.018,23.998,0.034c2.653,0.017,5.017-0.5,7.114-2.277c1.843-1.562,4.177-1.93,6.532-1.975
		c10.472-0.2,20.943-0.341,31.414-0.595c2.463-0.06,4.918-0.478,7.377-0.721c3.733-0.369,7.461-0.907,11.203-1.047
		c5.272-0.197,10.583,0.232,15.829-0.197c9.079-0.743,18.038,0.406,27.043,0.971c2.533,0.159,5.095-0.14,7.644-0.224
		c0.877-0.029,1.768-0.149,2.63-0.046c5.078,0.607,10.149,1.263,15.222,1.922C793.199,314.624,793.474,314.828,793.962,315.046z"/>
	<path fill-rule="evenodd" clip-rule="evenodd" fill="#FFFFFF" d="M381.913,628.535c-4.404,2.087-8.722,4.133-13.042,6.178
		c-0.071,0.033-0.154,0.061-0.231,0.061c-5.03,0.012-9.471,2.778-14.437,3.092c-1.589,0.101-3.176,0.23-4.984,0.363
		c-0.37-0.979-0.825-1.898-1.067-2.871c-1.797-7.211-3.612-14.421-4.128-21.875c-0.039-0.556-0.071-1.138-0.256-1.655
		c-2.654-7.442-3.6-15.247-4.5-23.005c-1.092-9.415-3.192-18.557-5.901-27.604c-2.889-9.647-4.799-19.548-7.329-29.279
		c-5.038-19.378-7.878-39.145-11.366-58.802c-0.056-0.315-0.079-0.635-0.118-0.952c-0.287-2.345-0.31-2.39,1.836-3.488
		c5.78-2.961,11.063-6.684,16.428-10.314c4.285-2.9,8.967-5.215,13.484-7.77c0.939-0.531,1.804-0.326,2.657,0.34
		c17.97,14.028,37.955,24.797,57.833,35.741c0.699,0.384,1.404,0.765,2.067,1.207c2.157,1.437,3.057,3.496,2.563,6.004
		c-0.429,2.184-0.914,4.397-1.729,6.458c-1.704,4.306-3.638,8.521-5.488,12.769c-0.155,0.356-0.391,0.676-0.645,1.106
		c-5.2-1.765-10.31-3.513-14.945-6.452c-3.913-2.48-7.917-4.818-11.917-7.158c-2.46-1.439-3.033-1.306-4.823,0.945
		c-2.438,3.066-4.917,6.106-7.224,9.271c-2.494,3.422-5.511,6.188-9.178,8.292c-2.062,1.184-2.173,1.267-1.628,3.62
		c0.989,4.272,2.159,8.503,3.262,12.749c0.318,1.225,0.696,2.378,0.419,3.74c-0.192,0.94,0.25,2.026,0.473,3.032
		c1.434,6.47,2.896,12.933,4.318,19.405c0.151,0.688,0.344,1.516,0.104,2.111c-0.806,1.995-0.142,3.732,0.568,5.547
		c3.345,8.554,6.678,17.112,9.943,25.697c0.964,2.534,1.547,5.218,2.572,7.725c1.173,2.868,2.497,5.699,4.027,8.392
		c1.458,2.566,2.229,5.123,1.303,7.998c-0.933,2.895-0.873,5.656,0.866,8.263C381.822,627.598,381.795,627.878,381.913,628.535z
		 M347.075,472.065c-2.446,1.217-4.792,2.379-7.134,3.55c-1.336,0.668-1.783,1.854-1.553,3.208
		c0.924,5.423,1.929,10.831,2.888,16.248c0.236,1.334,1.022,2.085,2.292,2.467c2.981,0.896,5.818,0.683,8.511-0.958
		c2.904-1.77,5.302-4.089,7.321-6.801c1.671-2.245,1.716-3.417-0.04-5.57c-1.254-1.537-2.72-2.908-4.144-4.3
		C352.542,477.292,349.831,474.715,347.075,472.065z"/>
	<path fill-rule="evenodd" clip-rule="evenodd" fill="#FFFFFF" d="M309.961,586.142c-3.867,4.802-7.566,9.417-11.291,14.014
		c-2.385,2.943-2.63,4.87-0.597,8.042c1.42,2.217,3.08,4.281,4.669,6.387c2.506,3.318,5.042,6.614,7.569,9.918
		c0.388,0.508,0.767,1.027,1.196,1.499c1.82,2,2.819,2.008,4.783,0.197c0.934-0.861,1.907-1.715,2.978-2.389
		c4.598-2.892,9.236-5.718,13.868-8.557c0.475-0.291,0.984-0.535,1.499-0.749c1.309-0.545,2.121-0.225,2.645,1.057
		c0.147,0.36,0.249,0.771,0.243,1.158c-0.093,5.955,1.856,11.477,3.595,17.042c0.661,2.112,1.347,4.217,1.976,6.183
		c-8.827,3.138-17.471,5.977-25.931,9.284c-8.464,3.31-16.745,7.088-25.196,10.699c-1.879-1.204-3.264-2.978-4.289-4.964
		c-1.537-2.978-2.934-6.033-4.277-9.104c-2.148-4.91-4.707-9.564-7.429-14.198c-5.132-8.738-10.067-17.629-13.722-27.146
		c-1.949-5.074-4.115-10.05-7.267-14.545c-0.906-1.292-1.495-2.818-2.154-4.271c-4.162-9.168-8.325-18.336-12.432-27.528
		c-0.746-1.668-1.21-3.459-1.85-5.176c-1.143-3.064-2.205-6.166-3.515-9.158c-1.28-2.925-2.842-5.727-4.252-8.596
		c-1.144-2.327-0.968-2.852,1.306-4.24c0.478-0.292,1.014-0.506,1.443-0.854c1.795-1.453,3.829-2.718,5.286-4.461
		c4.402-5.267,9.549-9.649,15.12-13.585c1.763-1.245,3.453-2.626,5.329-3.672c2.286-1.273,4.654-2.494,7.128-3.31
		c3.247-1.071,6.182-2.548,8.78-4.758c2.74-2.332,5.523-4.615,8.297-6.908c0.601-0.497,1.246-0.941,2.1-1.583
		c0.642,1.312,1.294,2.4,1.728,3.57c2.418,6.514,4.748,13.062,7.185,19.569c0.971,2.592,0.369,4.578-1.628,6.444
		c-4.788,4.477-9.617,8.926-14.142,13.662c-2.461,2.577-4.38,5.684-6.458,8.613c-1.688,2.381-1.664,4.844-0.267,7.44
		c3.75,6.966,7.394,13.989,11.102,20.978c0.522,0.984,1.053,2.003,1.781,2.83c1.724,1.961,3.949,1.568,4.797-0.899
		c0.898-2.616,2.532-4.58,4.677-6.22c1.444-1.104,2.846-2.263,4.491-3.576C303.04,571.431,306.555,578.646,309.961,586.142z"/>
	<path fill-rule="evenodd" clip-rule="evenodd" fill="#FFFFFF" d="M926.614,430.204c-0.508,2.708-0.946,5.539-1.579,8.327
		c-2.316,10.208-4.935,20.332-8.346,30.244c-1.063,3.089-1.748,6.309-2.595,9.472c-0.911,3.409-2.298,6.473-5.606,8.279
		c-0.523,0.286-0.914,0.885-1.262,1.408c-1.266,1.903-2.913,3.398-4.858,4.555c-3.433,2.041-6.865,4.086-10.35,6.038
		c-4.905,2.748-10.127,3.488-15.502,1.75c-6.597-2.133-13.125-4.48-19.877-6.802c0.347-3.975,0.639-7.782,1.021-11.581
		c0.435-4.309,0.686-8.607-0.212-12.888c-0.415-1.981-0.204-3.801,1.365-5.486c1.152,0.452,2.347,0.871,3.502,1.38
		c4.473,1.971,9.108,3.452,13.865,4.537c5.659,1.29,11.281,0.746,16.866-0.553c0.776-0.181,1.549-0.381,2.312-0.608
		c1.246-0.371,2.093-1.189,2.395-2.453c1.263-5.28,2.868-10.502,3.089-15.974c0.175-4.33-0.159-8.637-1.309-12.832
		c-1.448-5.286-4.856-8.938-9.828-11.077c-2.339-1.007-4.82-1.681-7.229-2.529c-3.278-1.154-4.306-2.622-4.117-6.123
		c0.507-9.414,0.815-18.848,1.678-28.23c0.642-6.986,1.98-13.912,3.094-20.852c0.733-4.573,1.454-9.158,2.47-13.672
		c1.858-8.252,6.051-15.421,10.855-22.264c0.734-1.045,1.5-2.071,2.304-3.064c1.145-1.416,2.661-2.008,4.463-1.78
		c0.868,0.11,1.727,0.306,2.585,0.484c4.869,1.012,9.799,1.45,14.765,1.482c7.356,0.048,14.714,0.021,22.07,0.095
		c9.512,0.095,19.022,0.255,28.533,0.398c0.55,0.008,1.098,0.108,1.901,0.193c-0.36,2.107-0.667,4.125-1.056,6.126
		c-1.368,7.059-2.762,14.113-4.151,21.168c-0.586,2.976-1.114,3.472-4.009,3.019c-3.146-0.493-6.222,0.021-9.309,0.344
		c-6.48,0.678-12.937,0.388-19.38-0.37c-3.49-0.41-6.959-1.004-10.44-1.492c-3.526-0.495-7.027-0.092-10.506,0.44
		c-2.361,0.361-3.568,1.958-3.938,4.239c-0.587,3.627-1.218,7.249-1.721,10.888c-0.798,5.776-1.831,11.545-2.168,17.352
		c-0.393,6.766-0.152,13.568-0.164,20.355c-0.002,0.956,0.147,1.912,0.178,2.869c0.142,4.548,2.308,7.93,6.107,10.241
		c3.857,2.346,7.995,4.003,12.558,4.386c0.317,0.027,0.636,0.072,0.943,0.151C926.164,429.83,926.28,429.966,926.614,430.204z"/>
	<path fill-rule="evenodd" clip-rule="evenodd" fill="#FFFFFF" d="M759.805,328.991c0.154,1.968,0.205,3.793,0.456,5.59
		c1.051,7.512,2.084,15.028,3.268,22.52c1.796,11.36,3.734,22.698,5.567,34.052c0.89,5.512,1.678,11.041,2.565,16.923
		c-1.138-0.052-1.987,0-2.802-0.143c-5.977-1.047-11.943-2.152-17.92-3.201c-3.194-0.561-5.575-2.184-7.2-5.018
		c-2.146-3.743-4.351-7.453-6.594-11.138c-2.335-3.835-4.243-7.869-5.834-12.06c-0.197-0.521-0.369-1.066-0.653-1.539
		c-1.014-1.688-2.392-1.958-3.702-0.514c-2.897,3.191-5.835,6.369-7.592,10.412c-0.947,2.181-1.578,2.387-3.636,1.166
		c-0.877-0.52-1.693-1.212-2.382-1.967c-1.775-1.948-3.467-3.974-5.188-5.971c-1.827-2.119-3.075-2.111-4.78,0.147
		c-3.828,5.068-6.999,10.476-8.862,16.615c-1.793,5.906-1.998,6.013-8.124,7.145c-3.562,0.659-7.116,0.731-10.961-0.431
		c2.947-22.775,6.062-45.434,9.068-68.239c4.862-0.694,9.508-1.458,14.181-1.99c3.541-0.402,4.468,0.245,5.784,3.64
		c2.888,7.446,5.708,14.917,8.556,22.378c0.228,0.596,0.402,1.221,0.697,1.783c1.206,2.301,3.485,2.416,4.879,0.197
		c0.719-1.143,1.069-2.539,1.876-3.601c1.735-2.283,3.552-4.525,5.525-6.602c4.468-4.702,8.704-9.593,12.438-14.893
		c1.731-2.458,3.841-3.86,6.923-4.054c3.663-0.23,7.303-0.819,10.958-1.191C757.403,328.897,758.511,328.991,759.805,328.991z"/>
	<path fill-rule="evenodd" clip-rule="evenodd" fill="#FFFFFF" d="M453.522,858.784c0.267-3.504,0.374-7.03,0.837-10.509
		c0.715-5.373,0.267-10.692-0.289-16.023c-0.415-3.972-1.063-7.934-0.363-11.941c0.232-1.329-0.033-2.547-1.017-3.54
		c-1.017-1.026-1.402-2.29-1.438-3.702c-0.111-4.394-0.259-8.786-0.348-13.18c-0.104-5.112,0.029-10.237-0.947-15.296
		c-0.06-0.312-0.05-0.638-0.063-0.957c-0.208-5.202,0.541-6.031,5.725-6.558c3.312-0.337,6.521,0.306,9.758,0.817
		c3.787,0.6,7.577,1.312,11.393,1.557c2.763,0.178,5.575-0.265,8.355-0.537c4.639-0.455,9.259-0.442,13.868,0.281
		c0.471,0.074,0.936,0.212,1.388,0.366c1.572,0.534,2.029,1.028,1.876,2.609c-0.391,4.051-0.957,8.084-1.333,12.136
		c-0.354,3.812-0.678,7.637-0.803,11.462c-0.443,13.5-0.89,27.001-1.139,40.506c-0.119,6.467,0.204,12.943,0.327,19.415
		c0.009,0.479,0.057,0.961,0.029,1.438c-0.115,1.995-0.884,2.96-2.863,3.229c-5.768,0.786-11.527,1.823-17.324,2.149
		c-7.709,0.434-15.287-0.839-22.667-3.176c-1.779-0.563-2.587-1.807-2.622-3.578c-0.046-2.317-0.011-4.637-0.011-6.955
		C453.741,858.793,453.631,858.789,453.522,858.784z"/>
	<path fill-rule="evenodd" clip-rule="evenodd" fill="#FFFFFF" d="M513.057,781.24c1.438-0.352,2.808-0.738,4.199-1.018
		c6.264-1.254,12.548-2.414,18.795-3.747c2.011-0.429,3.929-1.29,5.892-1.944c0.751-0.25,1.508-0.675,2.265-0.683
		c3.911-0.035,7.555-1.211,11.186-2.456c1.473-0.505,2.936-0.715,4.469-0.369c1.077,0.242,1.704,0.854,1.648,1.991
		c-0.05,1.035-0.099,2.079-0.273,3.098c-1.026,5.969-0.723,11.936-0.167,17.923c0.362,3.893,0.621,7.803,0.726,11.71
		c0.123,4.569-1.542,8.606-4.218,12.244c-1.137,1.545-2.359,3.027-3.531,4.548c-2.657,3.448-4.293,7.274-4.351,11.696
		c-0.029,2.229-0.741,4.253-2.101,6.007c-1.813,2.338-3.654,4.656-5.556,6.922c-1.352,1.611-3.079,2.735-4.985,3.658
		c-2.147,1.039-4.253,2.193-6.268,3.471c-2.767,1.753-5.431,3.671-8.14,5.517c-2.535,1.727-5.261,2.92-8.289,3.607
		c-1.973,0.449-3.803,1.524-5.973,2.435c-0.043-0.877-0.117-1.706-0.118-2.534c-0.01-5.84,0.078-11.681-0.026-17.519
		c-0.136-7.592-0.349-15.184-0.664-22.771c-0.324-7.807,0.869-15.464,2.002-23.134c0.081-0.549,0.213-1.115,0.448-1.614
		c2.206-4.68,2.286-9.756,2.787-14.754C512.883,782.82,512.963,782.116,513.057,781.24z"/>
	<path fill-rule="evenodd" clip-rule="evenodd" fill="#FFFFFF" d="M452.855,706.521c1.434-0.401,2.854-1.064,4.312-1.163
		c8.447-0.567,16.897-1.188,25.357-1.423c6.704-0.187,13.422,0.154,20.134,0.263c0.719,0.012,1.438,0.025,2.157,0.044
		c1.3,0.032,2.147,0.658,2.306,1.969c0.259,2.138,0.602,4.283,0.622,6.428c0.038,4.146-0.066,8.298-0.216,12.444
		c-0.241,6.626-0.427,13.259-0.914,19.869c-0.263,3.565-1.125,7.085-1.67,10.633c-0.291,1.895-0.455,3.809-0.735,5.704
		c-0.139,0.942-0.331,1.894-0.638,2.792c-0.742,2.171-1.567,2.879-3.892,2.809c-8.383-0.253-16.771-0.486-25.143-0.984
		c-5.017-0.298-10.005-1.068-15.005-1.639c-2.421-0.276-4.663-1.042-6.663-2.475c-1.727-1.236-2.578-2.877-2.084-4.974
		c1.268-5.395,0.735-10.79,0.276-16.216c-0.464-5.49-0.718-11-0.999-16.504c-0.04-0.768,0.149-1.619,0.472-2.32
		c1.922-4.169,2.608-8.526,2.223-13.082C452.702,708.071,452.808,707.435,452.855,706.521z"/>
	<path fill-rule="evenodd" clip-rule="evenodd" fill="#FFFFFF" d="M855.081,425.811c-1.064,0.068-2.093,0.264-3.095,0.175
		c-3.261-0.292-6.519-0.643-9.766-1.061c-2.102-0.27-2.709-0.862-2.723-2.929c-0.04-6.316,0.043-12.632,0.046-18.948
		c0.001-1.995-0.061-3.991-0.16-5.984c-0.085-1.698-0.968-2.907-2.619-3.337c-3.476-0.904-6.972-1.73-10.469-2.549
		c-1.435-0.336-2.516,0.28-3.204,1.524c-0.501,0.906-0.972,1.845-1.32,2.817c-1.722,4.802-4.445,9-7.558,13
		c-1.763,2.265-3.335,4.677-5.008,7.012c-0.273,0.382-0.62,0.711-1.009,1.15c-6.445-1.145-12.875-2.287-19.676-3.495
		c0.528-0.999,0.876-1.862,1.396-2.604c4.48-6.396,7.848-13.324,10.362-20.72c0.972-2.855,2.525-5.511,3.807-8.262
		c5.469-11.746,9.833-23.936,14.439-36.028c1.677-4.404,3.341-8.814,4.902-13.26c0.79-2.249,2.17-3.301,4.587-3.438
		c5.424-0.308,10.837-0.81,16.255-1.234c3.06-0.239,6.039,0.168,9.264,1.062c0,1.525,0.003,3.016-0.001,4.507
		c-0.013,5.828-0.017,11.656-0.045,17.483c-0.015,2.956-0.098,5.912-0.104,8.868c-0.016,7.757-0.193,15.521,0.044,23.271
		c0.273,8.941,0.959,17.869,1.393,26.807c0.235,4.862,0.326,9.731,0.463,14.597C855.297,424.696,855.169,425.161,855.081,425.811z
		 M845.637,351.255c-4.14-0.57-7.919-1.11-11.704-1.601c-1.207-0.156-1.959,0.544-2.393,1.601
		c-2.309,5.613-4.686,11.201-6.873,16.861c-0.979,2.533-0.111,3.428,2.609,3.625c3.979,0.288,7.944,0.75,11.915,1.131
		c1.033,0.099,2.07,0.268,3.101,0.234c1.551-0.051,2.178-0.655,2.24-2.213c0.052-1.271-0.03-2.562-0.201-3.825
		c-0.573-4.251-0.391-8.449,0.664-12.611C845.226,353.547,845.367,352.615,845.637,351.255z"/>
	<path fill-rule="evenodd" clip-rule="evenodd" fill="#FFFFFF" d="M517.842,703.673c1.124-0.235,2.343-0.664,3.579-0.721
		c11.494-0.528,22.99-1.034,34.489-1.444c2.706-0.097,5.428,0.17,8.139,0.318c0.767,0.042,1.524,0.256,2.414,0.414
		c-0.175,3.071-0.336,5.928-0.502,8.784c-0.593,10.211-1.188,20.422-1.779,30.633c-0.171,2.951-0.343,5.903-0.491,8.855
		c-0.091,1.818-0.903,3.117-2.451,4.124c-3.796,2.47-7.897,4.157-12.287,5.211c-4.348,1.044-8.68,2.151-13.028,3.194
		c-0.767,0.184-1.61,0.366-2.364,0.237c-5.27-0.905-10.528-0.217-15.79-0.007c-0.778,0.031-1.558,0.005-2.546,0.005
		c0.133-1.479,0.252-2.73,0.357-3.983c1.046-12.423,2.141-24.842,3.096-37.272c0.232-3.015,0.096-6.07-0.043-9.1
		C518.499,709.99,518.143,707.069,517.842,703.673z"/>
	<path fill-rule="evenodd" clip-rule="evenodd" fill="#FFFFFF" d="M427.132,474.377c-6.005-19.806-14.114-38.541-19.521-58.381
		c1.172-0.5,2.262-0.948,3.339-1.426c2.616-1.16,5.253-2.276,7.832-3.513c3.738-1.793,7.421-3.702,11.15-5.515
		c2.597-1.262,5.213-1.048,7.907-0.14c3.472,1.17,6.97,2.304,10.529,3.154c3.057,0.73,5.885,1.565,7.359,4.671
		c1.656,3.488,2.128,7.08,0.385,10.628c-0.905,1.843-2.148,3.548-3.415,5.178c-2.559,3.295-2.489,4.22,1.104,6.285
		c6.238,3.585,12.386,7.305,18.113,11.676c1.641,1.253,3.214,2.595,4.939,3.995c-7.116,2.728-13.996,5.366-21.152,8.11
		c-1.06-1.478-2.225-3.167-3.457-4.807c-2.346-3.122-5.048-3.867-8.636-2.407c-2.278,0.927-3.633,2.591-3.723,5.093
		c-0.081,2.234-0.1,4.475-0.03,6.709c0.052,1.672-0.456,2.857-1.956,3.775C434.368,469.626,430.922,471.931,427.132,474.377z
		 M444.116,421.049c-0.334-0.546-0.71-1.867-1.578-2.432c-1.929-1.255-4.164-2.106-6.523-1.9c-2.531,0.221-5.051,0.668-7.547,1.164
		c-2.057,0.409-2.667,1.298-2.029,3.229c1.223,3.699,2.58,7.358,4.024,10.977c0.656,1.643,1.807,2.143,3.474,1.793
		C439.224,432.769,443.729,427.426,444.116,421.049z"/>
	<path fill-rule="evenodd" clip-rule="evenodd" fill="#FFFFFF" d="M531.31,428.945c0.193-1.62,0.187-2.896,0.512-4.082
		c1.606-5.854,3.364-11.668,4.949-17.528c2.607-9.637,5.096-19.305,7.693-28.944c0.726-2.696,1.603-5.355,2.508-7.997
		c0.775-2.265,1.764-4.456,1.695-6.932c-0.039-1.411,0.989-1.88,2.143-2.168c2.712-0.676,5.422-1.358,8.137-2.021
		c4.344-1.06,8.692-2.105,13.038-3.158c2.633-0.638,3.116-0.536,4.501,1.837c3.02,5.172,6.033,10.352,8.871,15.625
		c5.76,10.703,11.708,21.291,18.323,31.493c0.644,0.993,1.19,2.049,1.924,3.32c-0.938,0.339-1.638,0.667-2.374,0.847
		c-3.025,0.738-6.054,1.472-9.098,2.13c-3.165,0.684-3.93,0.34-5.343-2.53c-1.694-3.44-3.319-6.915-4.909-10.405
		c-1.231-2.704-1.967-3.261-4.782-2.723c-6.512,1.243-13.009,2.565-19.501,3.907c-2.558,0.528-4.164,2.193-5.139,4.579
		c-2.086,5.102-4.217,10.186-6.33,15.277c-0.582,1.402-1.146,2.812-1.75,4.204c-0.675,1.555-1.812,2.707-3.472,3.056
		C539.236,427.505,535.541,428.146,531.31,428.945z M555.479,384.813c-0.131,3.116,1.335,4.702,4.061,4.164
		c4.294-0.848,8.542-1.957,12.771-3.097c1.577-0.425,2.113-1.546,1.706-3.186c-1.057-4.256-2.196-8.493-3.334-12.729
		c-0.34-1.265-1.169-2.051-2.526-2.212c-1.743-0.206-3.478-0.507-5.226-0.634c-2.5-0.182-3.262,0.384-3.896,2.868
		c-1.143,4.48-2.23,8.974-3.329,13.466C555.574,383.994,555.521,384.553,555.479,384.813z"/>
	<path fill-rule="evenodd" clip-rule="evenodd" fill="#FFFFFF" d="M572.34,749.058c0.197-2.692,0.297-4.92,0.531-7.133
		c1.227-11.593,2.479-23.183,3.753-34.77c0.121-1.103,0.397-2.2,0.713-3.267c0.581-1.956,1.231-2.468,3.273-2.477
		c3.516-0.016,7.031,0.016,10.546,0.087c2.313,0.047,4.624,0.236,6.938,0.294c4.89,0.121,9.009,1.896,12.247,5.6
		c1.469,1.68,3.25,2.801,5.454,3.233c0.548,0.108,1.09,0.258,1.621,0.43c0.883,0.286,1.288,0.905,1.138,1.832
		c-0.077,0.472-0.168,0.95-0.331,1.396c-2.777,7.574-5.61,15.12-10.004,21.964c-0.659,1.028-1.293,1.703-2.64,1.573
		c-2.328-0.225-4.361,0.727-6.341,1.826c-1.533,0.852-3.078,1.685-4.653,2.454c-1.41,0.688-2.907,0.871-4.418,0.328
		c-1.533-0.551-2.981-0.324-4.404,0.363c-3.089,1.491-6.174,2.994-9.273,4.464C575.276,747.832,574.026,748.329,572.34,749.058z"/>
	<path fill-rule="evenodd" clip-rule="evenodd" fill="#FFFFFF" d="M423.064,770.315c1.088,0.375,2.175,0.753,3.265,1.126
		c3.993,1.369,7.924,2.973,11.998,4.031c3.573,0.93,4.331,0.081,4.477,5.453c0.19,7.021,0.468,14.045,0.928,21.053
		c0.313,4.774,1.134,9.515,1.493,14.287c0.424,5.649,0.753,11.314,0.84,16.977c0.137,8.948,0.041,17.899,0.032,26.849
		c-0.001,1.255,0.279,2.668-1.209,3.354c-1.373,0.634-2.451-0.154-3.511-0.9c-2.154-1.518-4.283-3.074-6.479-4.53
		c-1.956-1.297-2.942-3.071-3.092-5.382c-0.315-4.859-0.809-9.713-0.945-14.576c-0.213-7.615-1.391-15.098-2.676-22.574
		c-1.042-6.057-2.111-12.108-3.244-18.147c-0.572-3.051-1.471-6.048-1.911-9.113c-0.243-1.692-0.059-3.525,0.312-5.212
		c0.91-4.143,1.286-8.206-0.647-12.202C422.817,770.644,422.94,770.479,423.064,770.315z"/>
	<path fill-rule="evenodd" clip-rule="evenodd" fill="#FFFFFF" d="M441.708,710.565c1.466,16.221,2.356,32.286-1.196,48.422
		c-1.78,0.497-3.681,0.154-5.523-0.183c-2.116-0.387-4.168-1.106-6.272-1.571c-1.189-0.262-1.734-0.953-2.042-2.053
		c-2.316-8.291-4.001-16.615-2.343-25.297c0.477-2.497,0.436-5.093,0.66-7.641c0.119-1.352,0.245-2.707,0.464-4.045
		c0.322-1.956,1.407-3.531,3.252-4.146c3.931-1.31,7.942-2.379,11.925-3.532C440.848,710.457,441.104,710.534,441.708,710.565z"/>
	<path fill-rule="evenodd" clip-rule="evenodd" fill="#FFFFFF" d="M600.826,752.285c0.027,2.355-0.917,4.115-1.796,5.893
		c-2.526,5.111-5.546,9.878-9.531,14.006c-1.608,1.666-3.033,3.507-4.577,5.235c-2.359,2.641-4.289,5.56-5.88,8.721
		c-1.581,3.14-3.206,6.257-4.838,9.37c-0.299,0.571-0.727,1.074-1.397,2.046c-0.252-1.024-0.44-1.451-0.451-1.883
		c-0.205-8.387-0.37-16.775-0.593-25.162c-0.047-1.76,0.601-3.055,1.97-4.122c2.482-1.935,5.114-3.573,8.208-4.308
		c4.138-0.983,7.73-2.963,10.892-5.776C595.072,754.312,597.562,752.803,600.826,752.285z"/>
	<path fill-rule="evenodd" clip-rule="evenodd" fill="#FFFFFF" d="M472.58,588.674c-1.251,1.379-2.434,2.657-3.588,3.961
		c-0.868,0.98-1.975,1.01-3.074,0.702c-1.489-0.418-2.805-1.217-3.582-2.601c-1.626-2.897-1.482-5.963-0.48-8.985
		c0.243-0.733,1.036-1.481,1.763-1.816c1.424-0.657,2.953-1.168,4.49-1.479c1.57-0.319,2.112,0.151,2.504,1.78
		c0.203,0.844,0.368,1.729,0.344,2.588C470.896,584.941,471.177,586.942,472.58,588.674z"/>
	<path fill-rule="evenodd" clip-rule="evenodd" d="M563.411,535.916c2.324-0.458,4.133-0.729,5.887-1.205
		c0.617-0.167,1.329-0.724,1.604-1.293c1.262-2.616,3.535-3.788,6.103-4.652c5.749-1.937,11.501-3.87,17.227-5.876
		c2.86-1.002,5.729-2.023,8.482-3.28c5.964-2.724,12.193-3.043,18.55-2.306c9.087,1.053,17.507,4.348,25.644,8.268
		c2.801,1.349,5.139,3.757,7.507,5.883c5.858,5.259,9.699,11.815,11.983,19.318c1.12,3.678,2.568,7.208,4.416,10.598
		c1.808,3.315,0.882,6.651-2.189,8.862c-2.662,1.916-5.658,1.383-7.479-1.362c-0.484-0.73-0.858-1.533-1.312-2.285
		c-1.419-2.356-2.583-3.588-4.869-5.126c-0.651,1.089-1.332,2.153-1.94,3.257c-1.828,3.32-4.271,5.951-7.893,7.359
		c-1.647,0.64-2.807,1.843-3.341,3.546c-1.007,3.213-3.104,5.523-5.858,7.341c-3.067,2.024-6.018,4.244-9.181,6.104
		c-10.01,5.888-20.759,7.571-32.104,5.117c-8.157-1.765-12.353-6.724-13.119-14.941c-0.46-4.928-1.147-9.836-1.794-14.745
		c-0.528-4.012-0.197-7.969,0.472-11.931c0.302-1.78,0.417-3.592,0.657-5.75c-4.397,1.028-7.942,2.803-10.888,5.521
		c-4.688,4.326-9.9,7.823-15.601,10.613c-5.475,2.68-10.748,5.627-15.269,9.811c-1.27,1.174-2.877,2.011-4.403,2.874
		c-1.659,0.939-3.463,1.173-5.328,0.621c-2.517-0.744-3.458-2.67-1.911-4.741c1.753-2.348,3.746-4.604,5.99-6.472
		c2.331-1.94,4.283-4.015,5.539-6.783c1.048-2.309,2.241-4.553,3.606-7.302c-1.285,0.241-2.048,0.338-2.787,0.531
		c-3.552,0.928-7.13,1.775-10.637,2.853c-4.916,1.512-9.13,0.126-13.029-2.813c-1.295-0.977-1.513-2.135-0.728-3.592
		c0.95-1.763,2.378-2.968,4.354-3.497c2.777-0.743,5.524-1.611,8.322-2.263c3.673-0.857,6.832-2.613,9.699-5.006
		c10.515-8.775,20.235-18.375,29.501-28.443c8.778-9.539,18.062-18.557,27.687-27.234c2.135-1.925,4.21-3.923,6.222-5.977
		c2.427-2.478,5.193-4.481,8.121-6.305c5.427-3.38,10.867-6.741,16.226-10.228c3.411-2.22,6.582-4.818,10.044-6.951
		c6.107-3.762,11.497-8.645,18.225-11.465c1.935-0.811,3.67-2.269,5.266-3.688c9.142-8.137,19.604-13.18,31.836-14.88
		c7.362-1.023,14.649-0.822,21.988-0.503c1.796,0.078,3.254,0.935,4.342,2.262c3.091,3.771,6.172,7.555,9.09,11.458
		c1.032,1.381,1.722,3.071,2.327,4.708c1.162,3.139,2.36,6.29,3.157,9.53c0.898,3.653-0.104,7.174-1.917,10.375
		c-2.043,3.605-7.175,4.155-10.121,1.149c-0.885-0.902-1.584-2.003-2.281-3.07c-1.081-1.657-2.549-2.614-4.528-2.743
		c-7.496-0.489-14.998-0.896-22.486-1.481c-4.321-0.338-8.446,0.594-12.537,1.637c-8.817,2.248-17.591,4.667-26.375,7.043
		c-0.84,0.227-1.689,0.542-2.429,0.991c-6.484,3.937-12.939,7.924-19.416,11.875c-2.725,1.662-5.515,3.22-8.215,4.922
		c-2.021,1.275-4.05,2.577-5.888,4.095c-3.019,2.493-5.906,5.146-8.809,7.776c-3.061,2.774-6.465,4.944-10.425,6.19
		c-2.416,0.76-4.438,2.145-6.259,3.874c-3.305,3.135-6.617,6.263-9.952,9.366c-3.539,3.294-6.425,7.113-9.031,11.157
		c-0.339,0.526-0.605,1.135-0.753,1.742c-0.86,3.509-2.68,6.47-5.06,9.134C564.769,534.127,564.269,534.83,563.411,535.916z
		 M629.32,562.745c3.322,0.011,6.05-1.698,6.643-4.44c1.342-6.208-4.31-12.024-10.328-10.485c-1.855,0.475-3.466,1.491-4.1,3.372
		C619.612,556.905,623.462,562.738,629.32,562.745z"/>
	<path fill-rule="evenodd" clip-rule="evenodd" d="M347.075,472.065c2.755,2.65,5.467,5.228,8.142,7.843
		c1.423,1.392,2.889,2.763,4.144,4.3c1.756,2.153,1.711,3.325,0.04,5.57c-2.019,2.712-4.417,5.031-7.321,6.801
		c-2.693,1.642-5.53,1.854-8.511,0.958c-1.269-0.381-2.055-1.132-2.292-2.467c-0.959-5.417-1.964-10.825-2.888-16.248
		c-0.23-1.354,0.217-2.54,1.553-3.208C342.283,474.444,344.629,473.282,347.075,472.065z"/>
	<path fill-rule="evenodd" clip-rule="evenodd" d="M845.637,351.255c-0.27,1.36-0.411,2.292-0.642,3.202
		c-1.055,4.162-1.237,8.36-0.664,12.611c0.171,1.263,0.253,2.554,0.201,3.825c-0.062,1.558-0.689,2.163-2.24,2.213
		c-1.03,0.034-2.067-0.135-3.101-0.234c-3.971-0.381-7.937-0.843-11.915-1.131c-2.721-0.197-3.588-1.092-2.609-3.625
		c2.188-5.66,4.564-11.248,6.873-16.861c0.434-1.056,1.186-1.757,2.393-1.601C837.718,350.145,841.497,350.685,845.637,351.255z"/>
	<path fill-rule="evenodd" clip-rule="evenodd" d="M444.116,421.049c-0.388,6.376-4.893,11.72-10.179,12.831
		c-1.667,0.35-2.818-0.15-3.474-1.793c-1.444-3.618-2.801-7.277-4.024-10.977c-0.638-1.931-0.027-2.82,2.029-3.229
		c2.496-0.496,5.016-0.943,7.547-1.164c2.359-0.207,4.595,0.645,6.523,1.9C443.406,419.182,443.782,420.503,444.116,421.049z"/>
	<path fill-rule="evenodd" clip-rule="evenodd" d="M555.479,384.813c0.042-0.26,0.094-0.82,0.226-1.36
		c1.098-4.492,2.186-8.986,3.329-13.466c0.634-2.484,1.397-3.05,3.896-2.868c1.748,0.127,3.483,0.428,5.226,0.634
		c1.357,0.161,2.186,0.947,2.526,2.212c1.138,4.236,2.277,8.473,3.334,12.729c0.408,1.64-0.128,2.761-1.706,3.186
		c-4.229,1.14-8.476,2.249-12.771,3.097C556.814,389.515,555.348,387.93,555.479,384.813z"/>
	<path fill-rule="evenodd" clip-rule="evenodd" fill="#FFFFFF" d="M629.32,562.745c-5.858-0.007-9.708-5.84-7.785-11.553
		c0.634-1.881,2.244-2.897,4.1-3.372c6.019-1.54,11.67,4.276,10.328,10.485C635.37,561.047,632.643,562.756,629.32,562.745z"/>
</g>
</svg>
